Hamlet-Tertia18-1.1.ufo
<glyph name="exclam" format="2">
	<advance width="155"/>
	<unicode hex="0021"/>
	<outline>
		<contour>
			<point x="62" y="147" type="curve"/>
			<point x="93" y="147" type="line"/>
			<point x="93" y="262"/>
			<point x="110" y="482"/>
			<point x="130" y="710" type="curve"/>
			<point x="25" y="710" type="line"/>
			<point x="43" y="482"/>
			<point x="62" y="262"/>
		</contour>
		<contour>
			<point x="79" y="-20" type="line"/>
			<point x="83" y="-20" type="line"/>
			<point x="135" y="42" type="line"/>
			<point x="135" y="46" type="line"/>
			<point x="76" y="97" type="line"/>
			<point x="72" y="97" type="line"/>
			<point x="20" y="36" type="line"/>
			<point x="20" y="32" type="line"/>
		</contour>
	</outline>
</glyph>
<glyph name="quotesingle" format="2">
	<advance width="199"/>
	<unicode hex="0027"/>
	<outline>
		<contour>
			<point x="20" y="471" type="curve"/>
			<point x="32" y="461" type="line"/>
			<point x="179" y="640" type="line"/>
			<point x="179" y="644" type="line"/>
			<point x="111" y="710" type="line"/>
			<point x="106" y="710" type="line"/>
			<point x="48" y="640" type="line"/>
			<point x="48" y="635" type="line"/>
			<point x="63" y="626"/>
			<point x="78" y="615"/>
			<point x="91" y="604" type="curve"/>
			<point x="69" y="560"/>
			<point x="46" y="515"/>
		</contour>
	</outline>
</glyph>
<glyph name="parenleft" format="2">
	<advance width="279"/>
	<unicode hex="0028"/>
	<outline>
		<contour>
			<point x="259" y="-205" type="curve"/>
			<point x="259" y="-165" type="line"/>
			<point x="224" y="-130"/>
			<point x="139" y="50"/>
			<point x="139" y="234" type="curve" smooth="yes"/>
			<point x="139" y="502"/>
			<point x="194" y="591"/>
			<point x="259" y="710" type="curve"/>
			<point x="227" y="710" type="line"/>
			<point x="143" y="591"/>
			<point x="50" y="462"/>
			<point x="50" y="233" type="curve" smooth="yes"/>
			<point x="50" y="40"/>
			<point x="203" y="-175"/>
		</contour>
	</outline>
</glyph>
<glyph name="parenright" format="2">
	<advance width="279"/>
	<unicode hex="0029"/>
	<outline>
		<contour>
			<point x="20" y="711" type="curve"/>
			<point x="20" y="711" type="line"/>
			<point x="20" y="671" type="line"/>
			<point x="55" y="636"/>
			<point x="140" y="456"/>
			<point x="140" y="272" type="curve"/>
			<point x="140" y="4"/>
			<point x="85" y="-85"/>
			<point x="20" y="-204" type="curve"/>
			<point x="52" y="-204" type="line"/>
			<point x="136" y="-85"/>
			<point x="229" y="44"/>
			<point x="229" y="273" type="curve"/>
			<point x="229" y="466"/>
			<point x="76" y="681"/>
		</contour>
	</outline>
</glyph>
<glyph name="comma" format="2">
	<advance width="199"/>
	<unicode hex="002C"/>
	<outline>
		<contour>
			<point x="32" y="-152" type="line"/>
			<point x="179" y="27" type="line"/>
			<point x="179" y="31" type="line"/>
			<point x="111" y="97" type="line"/>
			<point x="106" y="97" type="line"/>
			<point x="48" y="27" type="line"/>
			<point x="48" y="22" type="line"/>
			<point x="63" y="13"/>
			<point x="78" y="2"/>
			<point x="91" y="-9" type="curve"/>
			<point x="69" y="-53"/>
			<point x="46" y="-98"/>
			<point x="20" y="-142" type="curve"/>
		</contour>
	</outline>
</glyph>
<glyph name="hyphen" format="2">
	<advance width="357"/>
	<unicode hex="002D"/>
	<outline>
		<contour>
			<point x="67" y="222" type="line"/>
			<point x="20" y="162" type="line"/>
			<point x="290" y="162" type="line"/>
			<point x="337" y="222" type="line"/>
		</contour>
	</outline>
</glyph>
<glyph name="period" format="2">
	<advance width="155"/>
	<unicode hex="002E"/>
	<outline>
		<contour>
			<point x="79" y="-20" type="line"/>
			<point x="83" y="-20" type="line"/>
			<point x="135" y="42" type="line"/>
			<point x="135" y="46" type="line"/>
			<point x="76" y="97" type="line"/>
			<point x="72" y="97" type="line"/>
			<point x="20" y="36" type="line"/>
			<point x="20" y="32" type="line"/>
		</contour>
	</outline>
</glyph>
<glyph name="zero" format="2">
	<advance width="416"/>
	<unicode hex="0030"/>
	<outline>
		<contour>
			<point x="214" y="-10" type="curve"/>
			<point x="214" y="-10" type="line"/>
			<point x="257" y="15"/>
			<point x="303" y="48"/>
			<point x="324" y="69" type="curve"/>
			<point x="348" y="92"/>
			<point x="386" y="163"/>
			<point x="386" y="228" type="curve"/>
			<point x="386" y="328"/>
			<point x="303" y="400"/>
			<point x="203" y="410" type="curve"/>
			<point x="193" y="410"/>
			<point x="103" y="331"/>
			<point x="92" y="321" type="curve"/>
			<point x="60" y="292"/>
			<point x="30" y="237"/>
			<point x="30" y="172" type="curve"/>
			<point x="30" y="72"/>
			<point x="103" y="0"/>
		</contour>
		<contour>
			<point x="281" y="74" type="curve"/>
			<point x="281" y="74" type="line"/>
			<point x="172" y="74"/>
			<point x="103" y="136"/>
			<point x="103" y="236" type="curve"/>
			<point x="103" y="276"/>
			<point x="119" y="306"/>
			<point x="134" y="324" type="curve"/>
			<point x="240" y="324"/>
			<point x="309" y="262"/>
			<point x="309" y="162" type="curve"/>
			<point x="309" y="132"/>
			<point x="295" y="92"/>
		</contour>
	</outline>
</glyph>
<glyph name="one" format="2">
	<advance width="235"/>
	<unicode hex="0031"/>
	<outline>
		<contour>
			<point x="33" y="10" type="curve"/>
			<point x="33" y="0" type="line"/>
			<point x="200" y="0" type="line"/>
			<point x="200" y="10" type="line"/>
			<point x="180" y="29"/>
			<point x="165" y="27"/>
			<point x="165" y="67" type="curve"/>
			<point x="165" y="337" type="line" smooth="yes"/>
			<point x="165" y="361"/>
			<point x="168" y="386"/>
			<point x="175" y="409" type="curve"/>
			<point x="159" y="411" type="line"/>
			<point x="30" y="292" type="line"/>
			<point x="30" y="282" type="line"/>
			<point x="78" y="270"/>
			<point x="85" y="267"/>
			<point x="85" y="233" type="curve"/>
			<point x="85" y="93" type="line" smooth="yes"/>
			<point x="85" y="45"/>
			<point x="87" y="43"/>
		</contour>
	</outline>
</glyph>
<glyph name="two" format="2">
	<advance width="319"/>
	<unicode hex="0032"/>
	<outline>
		<contour>
			<point x="254" y="-10" type="curve"/>
			<point x="270" y="20"/>
			<point x="286" y="49"/>
			<point x="304" y="77" type="curve"/>
			<point x="290" y="80" type="line"/>
			<point x="272" y="66"/>
			<point x="262" y="62"/>
			<point x="252" y="62" type="curve" smooth="yes"/>
			<point x="233" y="62"/>
			<point x="180" y="82"/>
			<point x="137" y="84" type="curve"/>
			<point x="207" y="151"/>
			<point x="273" y="218"/>
			<point x="273" y="301" type="curve" smooth="yes"/>
			<point x="273" y="388"/>
			<point x="182" y="423"/>
			<point x="95" y="407" type="curve"/>
			<point x="10" y="332" type="line"/>
			<point x="17" y="314" type="line"/>
			<point x="84" y="360"/>
			<point x="188" y="325"/>
			<point x="188" y="250" type="curve" smooth="yes"/>
			<point x="188" y="192"/>
			<point x="142" y="125"/>
			<point x="13" y="-4" type="curve"/>
			<point x="45" y="-9" type="line"/>
			<point x="63" y="11"/>
			<point x="80" y="22"/>
			<point x="98" y="22" type="curve" smooth="yes"/>
			<point x="152" y="22"/>
			<point x="218" y="-10"/>
		</contour>
	</outline>
</glyph>
<glyph name="three" format="2">
	<advance width="352"/>
	<unicode hex="0033"/>
	<outline>
		<contour>
			<point x="103" y="-105" type="curve"/>
			<point x="103" y="-105" type="line"/>
			<point x="213" y="-105"/>
			<point x="327" y="-14"/>
			<point x="327" y="76" type="curve"/>
			<point x="327" y="157"/>
			<point x="266" y="203"/>
			<point x="196" y="222" type="curve"/>
			<point x="307" y="392" type="line"/>
			<point x="302" y="399" type="line"/>
			<point x="244" y="388"/>
			<point x="136" y="392"/>
			<point x="63" y="398" type="curve"/>
			<point x="41" y="371"/>
			<point x="27" y="335"/>
			<point x="16" y="298" type="curve"/>
			<point x="34" y="293" type="line"/>
			<point x="49" y="311"/>
			<point x="157" y="309"/>
			<point x="212" y="309" type="curve"/>
			<point x="107" y="145" type="line"/>
			<point x="112" y="141" type="line"/>
			<point x="190" y="141"/>
			<point x="244" y="103"/>
			<point x="244" y="37" type="curve"/>
			<point x="244" y="-28"/>
			<point x="208" y="-60"/>
			<point x="168" y="-60" type="curve"/>
			<point x="110" y="-60"/>
			<point x="86" y="-28"/>
			<point x="65" y="-12" type="curve"/>
			<point x="5" y="-68" type="line"/>
			<point x="5" y="-73" type="line"/>
			<point x="25" y="-93"/>
			<point x="51" y="-105"/>
		</contour>
	</outline>
</glyph>
<glyph name="four" format="2">
	<advance width="459"/>
	<unicode hex="0034"/>
	<outline>
		<contour>
			<point x="204" y="-122" type="line"/>
			<point x="352" y="-122" type="line"/>
			<point x="352" y="-112" type="line"/>
			<point x="332" y="-92"/>
			<point x="317" y="-77"/>
			<point x="317" y="-37" type="curve" smooth="yes"/>
			<point x="317" y="27" type="line"/>
			<point x="417" y="24" type="line"/>
			<point x="454" y="116" type="line"/>
			<point x="446" y="123" type="line"/>
			<point x="406" y="101"/>
			<point x="366" y="92"/>
			<point x="317" y="90" type="curve"/>
			<point x="317" y="420" type="line"/>
			<point x="298" y="420" type="line"/>
			<point x="20" y="49" type="line"/>
			<point x="27" y="29" type="line"/>
			<point x="93" y="30"/>
			<point x="165" y="30"/>
			<point x="234" y="29" type="curve"/>
			<point x="234" y="-37" type="line" smooth="yes"/>
			<point x="234" y="-77"/>
			<point x="224" y="-89"/>
			<point x="204" y="-112" type="curve"/>
		</contour>
		<contour>
			<point x="112" y="90" type="line"/>
			<point x="234" y="275" type="line"/>
			<point x="234" y="90" type="line"/>
		</contour>
	</outline>
</glyph>
<glyph name="five" format="2">
	<advance width="365"/>
	<unicode hex="0035"/>
	<outline>
		<contour>
			<point x="72" y="-121" type="curve" smooth="yes"/>
			<point x="167" y="-121"/>
			<point x="288" y="-33"/>
			<point x="288" y="73" type="curve" smooth="yes"/>
			<point x="288" y="159"/>
			<point x="215" y="223"/>
			<point x="130" y="239" type="curve"/>
			<point x="156" y="313" type="line"/>
			<point x="201" y="313"/>
			<point x="263" y="317"/>
			<point x="310" y="324" type="curve"/>
			<point x="370" y="414" type="line"/>
			<point x="365" y="420" type="line"/>
			<point x="330" y="398"/>
			<point x="153" y="398"/>
			<point x="145" y="398" type="curve"/>
			<point x="57" y="150" type="line"/>
			<point x="61" y="144" type="line"/>
			<point x="139" y="161"/>
			<point x="212" y="103"/>
			<point x="212" y="29" type="curve" smooth="yes"/>
			<point x="212" y="-8"/>
			<point x="199" y="-39"/>
			<point x="176" y="-62" type="curve"/>
			<point x="141" y="-62"/>
			<point x="93" y="-50"/>
			<point x="69" y="-39" type="curve"/>
			<point x="-10" y="-105" type="line"/>
			<point x="-10" y="-111" type="line"/>
			<point x="19" y="-116"/>
			<point x="42" y="-121"/>
		</contour>
	</outline>
</glyph>
<glyph name="six" format="2">
	<advance width="404"/>
	<unicode hex="0036"/>
	<outline>
		<contour>
			<point x="215" y="-8" type="curve"/>
			<point x="296" y="26"/>
			<point x="379" y="92"/>
			<point x="380" y="197" type="curve" smooth="yes"/>
			<point x="381" y="316"/>
			<point x="254" y="382"/>
			<point x="163" y="376" type="curve"/>
			<point x="189" y="417"/>
			<point x="280" y="499"/>
			<point x="386" y="532" type="curve"/>
			<point x="389" y="543" type="line"/>
			<point x="309" y="561" type="line"/>
			<point x="170" y="485"/>
			<point x="20" y="354"/>
			<point x="20" y="200" type="curve" smooth="yes"/>
			<point x="20" y="70"/>
			<point x="96" y="1"/>
		</contour>
		<contour>
			<point x="282" y="76" type="curve"/>
			<point x="182" y="66"/>
			<point x="98" y="141"/>
			<point x="98" y="231" type="curve" smooth="yes"/>
			<point x="98" y="262"/>
			<point x="103" y="290"/>
			<point x="114" y="307" type="curve"/>
			<point x="218" y="316"/>
			<point x="297" y="247"/>
			<point x="304" y="162" type="curve" smooth="yes"/>
			<point x="307" y="121"/>
			<point x="295" y="96"/>
		</contour>
	</outline>
</glyph>
<glyph name="seven" format="2">
	<advance width="338"/>
	<unicode hex="0037"/>
	<outline>
		<contour>
			<point x="-5" y="-29" type="curve"/>
			<point x="-20" y="-123" type="line"/>
			<point x="92" y="-133"/>
			<point x="164" y="-85"/>
			<point x="193" y="-10" type="curve"/>
			<point x="244" y="119"/>
			<point x="261" y="269"/>
			<point x="343" y="395" type="curve"/>
			<point x="337" y="403" type="line"/>
			<point x="288" y="387"/>
			<point x="111" y="399"/>
			<point x="77" y="402" type="curve"/>
			<point x="55" y="375"/>
			<point x="38" y="340"/>
			<point x="21" y="303" type="curve"/>
			<point x="43" y="299" type="line"/>
			<point x="77" y="325"/>
			<point x="133" y="321"/>
			<point x="219" y="316" type="curve"/>
			<point x="183" y="207"/>
			<point x="166" y="99"/>
			<point x="137" y="-10" type="curve"/>
			<point x="117" y="-82"/>
			<point x="90" y="-93"/>
		</contour>
	</outline>
</glyph>
<glyph name="eight" format="2">
	<advance width="357"/>
	<unicode hex="0038"/>
	<outline>
		<contour>
			<point x="170" y="-10" type="curve"/>
			<point x="189" y="-10"/>
			<point x="279" y="56"/>
			<point x="295" y="69" type="curve" smooth="yes"/>
			<point x="315" y="88"/>
			<point x="337" y="128"/>
			<point x="337" y="161" type="curve" smooth="yes"/>
			<point x="337" y="221"/>
			<point x="307" y="258"/>
			<point x="240" y="288" type="curve"/>
			<point x="277" y="318"/>
			<point x="307" y="345"/>
			<point x="307" y="398" type="curve" smooth="yes"/>
			<point x="307" y="456"/>
			<point x="250" y="505"/>
			<point x="192" y="515" type="curve"/>
			<point x="177" y="515"/>
			<point x="105" y="465"/>
			<point x="73" y="439" type="curve" smooth="yes"/>
			<point x="59" y="429"/>
			<point x="34" y="391"/>
			<point x="34" y="355" type="curve" smooth="yes"/>
			<point x="34" y="316"/>
			<point x="54" y="278"/>
			<point x="111" y="257" type="curve"/>
			<point x="45" y="229"/>
			<point x="20" y="182"/>
			<point x="20" y="128" type="curve" smooth="yes"/>
			<point x="20" y="51"/>
			<point x="94" y="0"/>
		</contour>
		<contour>
			<point x="222" y="59" type="curve"/>
			<point x="143" y="59"/>
			<point x="96" y="106"/>
			<point x="96" y="162" type="curve" smooth="yes"/>
			<point x="96" y="203"/>
			<point x="123" y="232"/>
			<point x="143" y="242" type="curve"/>
			<point x="200" y="242"/>
			<point x="255" y="213"/>
			<point x="255" y="138" type="curve" smooth="yes"/>
			<point x="255" y="108"/>
			<point x="237" y="72"/>
		</contour>
		<contour>
			<point x="201" y="300" type="curve"/>
			<point x="155" y="300"/>
			<point x="108" y="326"/>
			<point x="108" y="382" type="curve" smooth="yes"/>
			<point x="108" y="411"/>
			<point x="122" y="435"/>
			<point x="137" y="446" type="curve"/>
			<point x="180" y="456"/>
			<point x="232" y="421"/>
			<point x="232" y="366" type="curve" smooth="yes"/>
			<point x="232" y="333"/>
			<point x="213" y="309"/>
		</contour>
	</outline>
</glyph>
<glyph name="nine" format="2">
	<advance width="404"/>
	<unicode hex="0039"/>
	<outline>
		<contour>
			<point x="189" y="407" type="curve"/>
			<point x="189" y="407" type="line"/>
			<point x="108" y="373"/>
			<point x="25" y="307"/>
			<point x="24" y="202" type="curve"/>
			<point x="23" y="83"/>
			<point x="150" y="17"/>
			<point x="241" y="23" type="curve"/>
			<point x="215" y="-18"/>
			<point x="124" y="-100"/>
			<point x="18" y="-133" type="curve"/>
			<point x="15" y="-144" type="line"/>
			<point x="95" y="-162" type="line"/>
			<point x="234" y="-86"/>
			<point x="384" y="45"/>
			<point x="384" y="199" type="curve"/>
			<point x="384" y="329"/>
			<point x="308" y="398"/>
		</contour>
		<contour>
			<point x="122" y="323" type="curve"/>
			<point x="122" y="323" type="line"/>
			<point x="222" y="333"/>
			<point x="306" y="258"/>
			<point x="306" y="168" type="curve"/>
			<point x="306" y="137"/>
			<point x="301" y="109"/>
			<point x="290" y="92" type="curve"/>
			<point x="186" y="83"/>
			<point x="107" y="152"/>
			<point x="100" y="237" type="curve"/>
			<point x="97" y="278"/>
			<point x="109" y="303"/>
		</contour>
	</outline>
</glyph>
<glyph name="colon" format="2">
	<advance width="155"/>
	<unicode hex="003A"/>
	<outline>
		<contour>
			<point x="20" y="32" type="line"/>
			<point x="79" y="-20" type="line"/>
			<point x="83" y="-20" type="line"/>
			<point x="135" y="42" type="line"/>
			<point x="135" y="46" type="line"/>
			<point x="76" y="97" type="line"/>
			<point x="72" y="97" type="line"/>
			<point x="20" y="36" type="line"/>
		</contour>
		<contour>
			<point x="20" y="212" type="line"/>
			<point x="79" y="160" type="line"/>
			<point x="83" y="160" type="line"/>
			<point x="135" y="222" type="line"/>
			<point x="135" y="226" type="line"/>
			<point x="76" y="277" type="line"/>
			<point x="72" y="277" type="line"/>
			<point x="20" y="216" type="line"/>
		</contour>
	</outline>
</glyph>
<glyph name="semicolon" format="2">
	<advance width="199"/>
	<unicode hex="003B"/>
	<outline>
		<contour>
			<point x="52" y="180" type="line"/>
			<point x="111" y="128" type="line"/>
			<point x="115" y="128" type="line"/>
			<point x="167" y="190" type="line"/>
			<point x="167" y="194" type="line"/>
			<point x="108" y="245" type="line"/>
			<point x="104" y="245" type="line"/>
			<point x="52" y="184" type="line"/>
		</contour>
		<contour>
			<point x="20" y="-142" type="curve"/>
			<point x="32" y="-152" type="line"/>
			<point x="179" y="27" type="line"/>
			<point x="179" y="31" type="line"/>
			<point x="111" y="97" type="line"/>
			<point x="106" y="97" type="line"/>
			<point x="48" y="27" type="line"/>
			<point x="48" y="22" type="line"/>
			<point x="63" y="13"/>
			<point x="78" y="2"/>
			<point x="91" y="-9" type="curve"/>
			<point x="69" y="-53"/>
			<point x="46" y="-98"/>
		</contour>
	</outline>
</glyph>
<glyph name="question" format="2">
	<advance width="281"/>
	<unicode hex="003F"/>
	<outline>
		<contour>
			<point x="195" y="135" type="curve"/>
			<point x="195" y="135" type="line"/>
			<point x="261" y="213" type="line"/>
			<point x="248" y="226" type="line"/>
			<point x="238" y="214"/>
			<point x="225" y="206"/>
			<point x="214" y="206" type="curve"/>
			<point x="197" y="206"/>
			<point x="179" y="231"/>
			<point x="179" y="269" type="curve"/>
			<point x="179" y="352"/>
			<point x="249" y="486"/>
			<point x="249" y="564" type="curve"/>
			<point x="249" y="662"/>
			<point x="193" y="703"/>
			<point x="121" y="710" type="curve"/>
			<point x="0" y="565" type="line"/>
			<point x="10" y="552" type="line"/>
			<point x="46" y="576"/>
			<point x="72" y="590"/>
			<point x="98" y="590" type="curve"/>
			<point x="129" y="590"/>
			<point x="174" y="574"/>
			<point x="174" y="502" type="curve"/>
			<point x="174" y="444"/>
			<point x="129" y="307"/>
			<point x="129" y="230" type="curve"/>
			<point x="129" y="163"/>
			<point x="181" y="135"/>
		</contour>
		<contour>
			<point x="113" y="32" type="line"/>
			<point x="172" y="-20" type="line"/>
			<point x="176" y="-20" type="line"/>
			<point x="228" y="42" type="line"/>
			<point x="228" y="46" type="line"/>
			<point x="169" y="97" type="line"/>
			<point x="165" y="97" type="line"/>
			<point x="113" y="36" type="line"/>
		</contour>
	</outline>
</glyph>
<glyph name="A" format="2">
	<advance width="666"/>
	<unicode hex="0041"/>
	<outline>
		<contour>
			<point x="5" y="10" type="line"/>
			<point x="10" y="0" type="line"/>
			<point x="208" y="0" type="line"/>
			<point x="208" y="10" type="line"/>
			<point x="140" y="40"/>
			<point x="109" y="60"/>
			<point x="133" y="112" type="curve"/>
			<point x="211" y="285" type="line"/>
			<point x="459" y="285" type="line"/>
			<point x="523" y="102" type="line" smooth="yes"/>
			<point x="539" y="56"/>
			<point x="529" y="40"/>
			<point x="493" y="10" type="curve"/>
			<point x="493" y="0" type="line"/>
			<point x="661" y="0" type="line"/>
			<point x="661" y="10" type="line"/>
			<point x="569" y="243"/>
			<point x="407" y="620"/>
			<point x="399" y="710" type="curve"/>
			<point x="369" y="703" type="line"/>
		</contour>
		<contour>
			<point x="445" y="325" type="curve"/>
			<point x="229" y="325" type="line"/>
			<point x="344" y="578" type="line"/>
			<point x="383" y="490"/>
			<point x="416" y="406"/>
		</contour>
	</outline>
</glyph>
<glyph name="B" format="2">
	<advance width="596"/>
	<unicode hex="0042"/>
	<outline>
		<contour>
			<point x="42" y="-15" type="line"/>
			<point x="116" y="15"/>
			<point x="200" y="-10"/>
			<point x="303" y="-10" type="curve" smooth="yes"/>
			<point x="423" y="-10"/>
			<point x="576" y="68"/>
			<point x="576" y="208" type="curve" smooth="yes"/>
			<point x="576" y="333"/>
			<point x="477" y="391"/>
			<point x="362" y="407" type="curve"/>
			<point x="424" y="427"/>
			<point x="499" y="482"/>
			<point x="499" y="568" type="curve" smooth="yes"/>
			<point x="499" y="648"/>
			<point x="430" y="710"/>
			<point x="310" y="710" type="curve" smooth="yes"/>
			<point x="214" y="710"/>
			<point x="126" y="670"/>
			<point x="20" y="660" type="curve"/>
			<point x="20" y="640" type="line"/>
			<point x="82" y="629"/>
			<point x="74" y="601"/>
			<point x="76" y="571" type="curve" smooth="yes"/>
			<point x="86" y="416"/>
			<point x="87" y="251"/>
			<point x="76" y="96" type="curve" smooth="yes"/>
			<point x="74" y="69"/>
			<point x="62" y="31"/>
			<point x="35" y="4" type="curve"/>
		</contour>
		<contour>
			<point x="299" y="29" type="curve" smooth="yes"/>
			<point x="210" y="29"/>
			<point x="170" y="70"/>
			<point x="169" y="133" type="curve" smooth="yes"/>
			<point x="166" y="350" type="line"/>
			<point x="186" y="359"/>
			<point x="232" y="373"/>
			<point x="298" y="373" type="curve" smooth="yes"/>
			<point x="398" y="373"/>
			<point x="476" y="308"/>
			<point x="476" y="208" type="curve" smooth="yes"/>
			<point x="476" y="108"/>
			<point x="409" y="29"/>
		</contour>
		<contour>
			<point x="265" y="409" type="curve" smooth="yes"/>
			<point x="222" y="409"/>
			<point x="187" y="411"/>
			<point x="167" y="419" type="curve"/>
			<point x="163" y="643" type="line"/>
			<point x="190" y="655"/>
			<point x="233" y="668"/>
			<point x="269" y="668" type="curve" smooth="yes"/>
			<point x="347" y="668"/>
			<point x="407" y="622"/>
			<point x="407" y="542" type="curve" smooth="yes"/>
			<point x="407" y="457"/>
			<point x="340" y="409"/>
		</contour>
	</outline>
</glyph>
<glyph name="C" format="2">
	<advance width="533"/>
	<unicode hex="0043"/>
	<outline>
		<contour>
			<point x="337" y="-10" type="curve"/>
			<point x="408" y="25"/>
			<point x="456" y="51"/>
			<point x="509" y="91" type="curve"/>
			<point x="518" y="122" type="line"/>
			<point x="513" y="124" type="line"/>
			<point x="468" y="101"/>
			<point x="430" y="72"/>
			<point x="355" y="72" type="curve" smooth="yes"/>
			<point x="216" y="72"/>
			<point x="106" y="206"/>
			<point x="106" y="385" type="curve" smooth="yes"/>
			<point x="106" y="520"/>
			<point x="153" y="621"/>
			<point x="225" y="643" type="curve"/>
			<point x="308" y="650"/>
			<point x="385" y="627"/>
			<point x="452" y="577" type="curve"/>
			<point x="480" y="602"/>
			<point x="506" y="637"/>
			<point x="516" y="662" type="curve"/>
			<point x="482" y="681"/>
			<point x="392" y="710"/>
			<point x="342" y="710" type="curve" smooth="yes"/>
			<point x="152" y="710"/>
			<point x="25" y="535"/>
			<point x="25" y="345" type="curve" smooth="yes"/>
			<point x="25" y="165"/>
			<point x="157" y="-10"/>
		</contour>
	</outline>
</glyph>
<glyph name="D" format="2">
	<advance width="711"/>
	<unicode hex="0044"/>
	<outline>
		<contour>
			<point x="26" y="8" type="curve"/>
			<point x="35" y="-10" type="line"/>
			<point x="57" y="-1"/>
			<point x="101" y="9"/>
			<point x="136" y="9" type="curve"/>
			<point x="186" y="9"/>
			<point x="273" y="-10"/>
			<point x="323" y="-10" type="curve"/>
			<point x="496" y="-10"/>
			<point x="686" y="89"/>
			<point x="686" y="343" type="curve"/>
			<point x="686" y="553"/>
			<point x="540" y="710"/>
			<point x="330" y="710" type="curve"/>
			<point x="204" y="710"/>
			<point x="157" y="687"/>
			<point x="30" y="710" type="curve"/>
			<point x="20" y="694" type="line"/>
			<point x="61" y="652"/>
			<point x="68" y="628"/>
			<point x="69" y="575" type="curve"/>
			<point x="72" y="417"/>
			<point x="73" y="259"/>
			<point x="69" y="101" type="curve"/>
			<point x="68" y="64"/>
			<point x="53" y="35"/>
		</contour>
		<contour>
			<point x="337" y="26" type="curve"/>
			<point x="337" y="26" type="line"/>
			<point x="225" y="26"/>
			<point x="166" y="56"/>
			<point x="163" y="146" type="curve"/>
			<point x="159" y="254"/>
			<point x="159" y="482"/>
			<point x="166" y="666" type="curve"/>
			<point x="424" y="695"/>
			<point x="586" y="580"/>
			<point x="586" y="363" type="curve"/>
			<point x="586" y="202"/>
			<point x="517" y="26"/>
		</contour>
	</outline>
</glyph>
<glyph name="E" format="2">
	<advance width="454"/>
	<unicode hex="0045"/>
	<outline>
		<contour>
			<point x="419" y="-46" type="curve"/>
			<point x="419" y="-46" type="line"/>
			<point x="429" y="-46" type="line"/>
			<point x="429" y="86" type="line"/>
			<point x="419" y="86" type="line"/>
			<point x="401" y="55"/>
			<point x="386" y="35"/>
			<point x="346" y="35" type="curve"/>
			<point x="245" y="36" type="line" smooth="yes"/>
			<point x="174" y="37"/>
			<point x="162" y="65"/>
			<point x="162" y="112" type="curve"/>
			<point x="161" y="352" type="line"/>
			<point x="306" y="352" type="line" smooth="yes"/>
			<point x="376" y="352"/>
			<point x="394" y="332"/>
			<point x="419" y="296" type="curve"/>
			<point x="429" y="296" type="line"/>
			<point x="429" y="434" type="line"/>
			<point x="419" y="434" type="line"/>
			<point x="396" y="403"/>
			<point x="376" y="387"/>
			<point x="306" y="387" type="curve"/>
			<point x="161" y="387" type="line"/>
			<point x="161" y="489"/>
			<point x="161" y="576"/>
			<point x="162" y="669" type="curve"/>
			<point x="283" y="669" type="line" smooth="yes"/>
			<point x="364" y="669"/>
			<point x="393" y="648"/>
			<point x="419" y="594" type="curve"/>
			<point x="429" y="598" type="line"/>
			<point x="429" y="700" type="line"/>
			<point x="20" y="700" type="line"/>
			<point x="20" y="690" type="line"/>
			<point x="61" y="669"/>
			<point x="70" y="658"/>
			<point x="71" y="605" type="curve"/>
			<point x="75" y="442"/>
			<point x="73" y="273"/>
			<point x="68" y="85" type="curve"/>
			<point x="67" y="42"/>
			<point x="52" y="32"/>
			<point x="20" y="10" type="curve"/>
			<point x="20" y="0" type="line"/>
			<point x="354" y="0" type="line" smooth="yes"/>
			<point x="386" y="0"/>
			<point x="401" y="-13"/>
		</contour>
	</outline>
</glyph>
<glyph name="F" format="2">
	<advance width="455"/>
	<unicode hex="0046"/>
	<outline>
		<contour>
			<point x="30" y="10" type="curve"/>
			<point x="30" y="0" type="line"/>
			<point x="242" y="0" type="line"/>
			<point x="241" y="10" type="line"/>
			<point x="176" y="39"/>
			<point x="164" y="45"/>
			<point x="163" y="85" type="curve"/>
			<point x="161" y="172"/>
			<point x="161" y="270"/>
			<point x="161" y="352" type="curve"/>
			<point x="317" y="352" type="line" smooth="yes"/>
			<point x="387" y="352"/>
			<point x="390" y="332"/>
			<point x="415" y="296" type="curve"/>
			<point x="430" y="296" type="line"/>
			<point x="430" y="434" type="line"/>
			<point x="415" y="434" type="line"/>
			<point x="402" y="413"/>
			<point x="387" y="387"/>
			<point x="317" y="387" type="curve"/>
			<point x="161" y="387" type="line"/>
			<point x="163" y="665" type="line"/>
			<point x="284" y="665" type="line" smooth="yes"/>
			<point x="365" y="665"/>
			<point x="389" y="648"/>
			<point x="415" y="594" type="curve"/>
			<point x="430" y="594" type="line"/>
			<point x="430" y="700" type="line"/>
			<point x="20" y="700" type="line"/>
			<point x="20" y="690" type="line"/>
			<point x="52" y="678"/>
			<point x="70" y="668"/>
			<point x="71" y="615" type="curve"/>
			<point x="74" y="452"/>
			<point x="72" y="263"/>
			<point x="71" y="125" type="curve"/>
			<point x="70" y="32"/>
			<point x="52" y="22"/>
		</contour>
	</outline>
</glyph>
<glyph name="G" format="2">
	<advance width="689"/>
	<unicode hex="0047"/>
	<outline>
		<contour>
			<point x="384" y="-10" type="curve" smooth="yes"/>
			<point x="480" y="-10"/>
			<point x="582" y="29"/>
			<point x="626" y="57" type="curve"/>
			<point x="622" y="165"/>
			<point x="622" y="272"/>
			<point x="626" y="380" type="curve"/>
			<point x="389" y="380" type="line"/>
			<point x="347" y="300" type="line"/>
			<point x="360" y="292" type="line"/>
			<point x="393" y="309"/>
			<point x="433" y="310"/>
			<point x="537" y="310" type="curve"/>
			<point x="539" y="236"/>
			<point x="541" y="153"/>
			<point x="531" y="69" type="curve"/>
			<point x="510" y="53"/>
			<point x="470" y="32"/>
			<point x="421" y="32" type="curve" smooth="yes"/>
			<point x="231" y="32"/>
			<point x="125" y="170"/>
			<point x="125" y="360" type="curve" smooth="yes"/>
			<point x="125" y="530"/>
			<point x="200" y="659"/>
			<point x="328" y="659" type="curve" smooth="yes"/>
			<point x="417" y="659"/>
			<point x="541" y="616"/>
			<point x="602" y="566" type="curve"/>
			<point x="616" y="597"/>
			<point x="631" y="629"/>
			<point x="649" y="660" type="curve"/>
			<point x="580" y="696"/>
			<point x="499" y="710"/>
			<point x="419" y="710" type="curve" smooth="yes"/>
			<point x="194" y="710"/>
			<point x="25" y="562"/>
			<point x="25" y="347" type="curve" smooth="yes"/>
			<point x="25" y="143"/>
			<point x="168" y="-10"/>
		</contour>
	</outline>
</glyph>
<glyph name="H" format="2">
	<advance width="698"/>
	<unicode hex="0048"/>
	<outline>
		<contour>
			<point x="20" y="10" type="curve"/>
			<point x="20" y="0" type="line"/>
			<point x="256" y="0" type="line"/>
			<point x="256" y="10" type="line"/>
			<point x="184" y="44"/>
			<point x="164" y="48"/>
			<point x="164" y="91" type="curve"/>
			<point x="164" y="165"/>
			<point x="162" y="239"/>
			<point x="162" y="335" type="curve"/>
			<point x="538" y="335" type="line"/>
			<point x="540" y="267"/>
			<point x="540" y="210"/>
			<point x="535" y="89" type="curve"/>
			<point x="533" y="36"/>
			<point x="515" y="32"/>
			<point x="484" y="10" type="curve"/>
			<point x="484" y="0" type="line"/>
			<point x="678" y="0" type="line"/>
			<point x="678" y="10" type="line"/>
			<point x="636" y="37"/>
			<point x="628" y="36"/>
			<point x="627" y="89" type="curve"/>
			<point x="624" y="252"/>
			<point x="623" y="297"/>
			<point x="627" y="435" type="curve"/>
			<point x="630" y="528"/>
			<point x="646" y="528"/>
			<point x="678" y="560" type="curve"/>
			<point x="678" y="570" type="line"/>
			<point x="456" y="570" type="line"/>
			<point x="457" y="560" type="line"/>
			<point x="524" y="525"/>
			<point x="532" y="525"/>
			<point x="535" y="435" type="curve"/>
			<point x="537" y="375" type="line"/>
			<point x="162" y="375" type="line"/>
			<point x="162" y="448"/>
			<point x="161" y="537"/>
			<point x="163" y="616" type="curve"/>
			<point x="164" y="651"/>
			<point x="174" y="661"/>
			<point x="214" y="690" type="curve"/>
			<point x="214" y="700" type="line"/>
			<point x="20" y="700" type="line"/>
			<point x="20" y="690" type="line"/>
			<point x="42" y="681"/>
			<point x="70" y="668"/>
			<point x="71" y="615" type="curve"/>
			<point x="74" y="452"/>
			<point x="72" y="267"/>
			<point x="71" y="129" type="curve"/>
			<point x="70" y="36"/>
			<point x="61" y="42"/>
		</contour>
	</outline>
</glyph>
<glyph name="I" format="2">
	<advance width="262"/>
	<unicode hex="0049"/>
	<outline>
		<contour>
			<point x="20" y="0" type="line"/>
			<point x="242" y="0" type="line"/>
			<point x="242" y="10" type="line"/>
			<point x="185" y="35"/>
			<point x="164" y="35"/>
			<point x="163" y="125" type="curve" smooth="yes"/>
			<point x="161" y="262"/>
			<point x="160" y="443"/>
			<point x="163" y="615" type="curve" smooth="yes"/>
			<point x="164" y="668"/>
			<point x="184" y="671"/>
			<point x="214" y="690" type="curve"/>
			<point x="214" y="700" type="line"/>
			<point x="20" y="700" type="line"/>
			<point x="20" y="690" type="line"/>
			<point x="42" y="681"/>
			<point x="70" y="668"/>
			<point x="71" y="615" type="curve" smooth="yes"/>
			<point x="74" y="452"/>
			<point x="73" y="263"/>
			<point x="71" y="125" type="curve" smooth="yes"/>
			<point x="70" y="42"/>
			<point x="61" y="38"/>
			<point x="20" y="10" type="curve"/>
		</contour>
	</outline>
</glyph>
<glyph name="J" format="2">
	<advance width="412"/>
	<unicode hex="004A"/>
	<outline>
		<contour>
			<point x="107" y="-228" type="curve"/>
			<point x="107" y="-248" type="line"/>
			<point x="249" y="-267"/>
			<point x="323" y="-170"/>
			<point x="325" y="45" type="curve"/>
			<point x="327" y="283"/>
			<point x="307" y="635"/>
			<point x="372" y="700" type="curve"/>
			<point x="359" y="710" type="line"/>
			<point x="267" y="678"/>
			<point x="158" y="689"/>
			<point x="49" y="689" type="curve"/>
			<point x="27" y="662"/>
			<point x="7" y="639"/>
			<point x="5" y="586" type="curve"/>
			<point x="12" y="583" type="line"/>
			<point x="44" y="620"/>
			<point x="115" y="619"/>
			<point x="233" y="614" type="curve"/>
			<point x="223" y="459"/>
			<point x="233" y="165"/>
			<point x="233" y="-49" type="curve"/>
			<point x="233" y="-166"/>
			<point x="199" y="-220"/>
		</contour>
	</outline>
</glyph>
<glyph name="K" format="2">
	<advance width="633"/>
	<unicode hex="004B"/>
	<outline>
		<contour>
			<point x="20" y="0" type="line"/>
			<point x="242" y="0" type="line"/>
			<point x="242" y="10" type="line"/>
			<point x="185" y="35"/>
			<point x="164" y="35"/>
			<point x="163" y="125" type="curve" smooth="yes"/>
			<point x="162" y="198"/>
			<point x="161" y="284"/>
			<point x="161" y="373" type="curve"/>
			<point x="218" y="355"/>
			<point x="337" y="212"/>
			<point x="417" y="90" type="curve" smooth="yes"/>
			<point x="445" y="47"/>
			<point x="427" y="34"/>
			<point x="378" y="10" type="curve"/>
			<point x="378" y="0" type="line"/>
			<point x="633" y="0" type="line"/>
			<point x="633" y="10" type="line"/>
			<point x="561" y="39"/>
			<point x="376" y="274"/>
			<point x="248" y="411" type="curve"/>
			<point x="319" y="460"/>
			<point x="463" y="597"/>
			<point x="577" y="690" type="curve"/>
			<point x="577" y="700" type="line"/>
			<point x="352" y="700" type="line"/>
			<point x="352" y="690" type="line"/>
			<point x="385" y="674"/>
			<point x="414" y="659"/>
			<point x="401" y="630" type="curve" smooth="yes"/>
			<point x="378" y="578"/>
			<point x="242" y="430"/>
			<point x="161" y="408" type="curve"/>
			<point x="161" y="475"/>
			<point x="162" y="547"/>
			<point x="163" y="615" type="curve" smooth="yes"/>
			<point x="164" y="668"/>
			<point x="184" y="671"/>
			<point x="214" y="690" type="curve"/>
			<point x="214" y="700" type="line"/>
			<point x="20" y="700" type="line"/>
			<point x="20" y="690" type="line"/>
			<point x="42" y="681"/>
			<point x="70" y="668"/>
			<point x="71" y="615" type="curve" smooth="yes"/>
			<point x="74" y="452"/>
			<point x="73" y="263"/>
			<point x="71" y="125" type="curve" smooth="yes"/>
			<point x="70" y="42"/>
			<point x="61" y="38"/>
			<point x="20" y="10" type="curve"/>
		</contour>
	</outline>
</glyph>
<glyph name="L" format="2">
	<advance width="540"/>
	<unicode hex="004C"/>
	<outline>
		<contour>
			<point x="20" y="10" type="curve"/>
			<point x="20" y="0" type="line"/>
			<point x="515" y="0" type="line"/>
			<point x="512" y="57"/>
			<point x="512" y="124"/>
			<point x="515" y="201" type="curve"/>
			<point x="496" y="201" type="line"/>
			<point x="476" y="93"/>
			<point x="449" y="71"/>
			<point x="400" y="58" type="curve"/>
			<point x="342" y="42"/>
			<point x="299" y="34"/>
			<point x="250" y="34" type="curve"/>
			<point x="186" y="34"/>
			<point x="167" y="52"/>
			<point x="164" y="100" type="curve"/>
			<point x="161" y="143"/>
			<point x="162" y="328"/>
			<point x="162" y="615" type="curve"/>
			<point x="162" y="648"/>
			<point x="207" y="671"/>
			<point x="262" y="690" type="curve"/>
			<point x="262" y="700" type="line"/>
			<point x="20" y="700" type="line"/>
			<point x="20" y="690" type="line"/>
			<point x="42" y="681"/>
			<point x="70" y="668"/>
			<point x="71" y="615" type="curve"/>
			<point x="74" y="452"/>
			<point x="72" y="273"/>
			<point x="71" y="135" type="curve"/>
			<point x="70" y="42"/>
			<point x="42" y="22"/>
		</contour>
	</outline>
</glyph>
<glyph name="M" format="2">
	<advance width="759"/>
	<unicode hex="004D"/>
	<outline>
		<contour>
			<point x="366" y="-5" type="curve"/>
			<point x="366" y="-5" type="line"/>
			<point x="391" y="1" type="line"/>
			<point x="419" y="132"/>
			<point x="494" y="349"/>
			<point x="561" y="520" type="curve"/>
			<point x="636" y="111" type="line" smooth="yes"/>
			<point x="645" y="60"/>
			<point x="629" y="40"/>
			<point x="583" y="10" type="curve"/>
			<point x="583" y="0" type="line"/>
			<point x="754" y="0" type="line"/>
			<point x="754" y="10" type="line"/>
			<point x="702" y="243"/>
			<point x="618" y="670"/>
			<point x="610" y="710" type="curve"/>
			<point x="580" y="710" type="line"/>
			<point x="390" y="228" type="line"/>
			<point x="314" y="430"/>
			<point x="231" y="675"/>
			<point x="222" y="710" type="curve"/>
			<point x="192" y="710" type="line"/>
			<point x="135" y="480"/>
			<point x="72" y="249"/>
			<point x="5" y="10" type="curve"/>
			<point x="5" y="0" type="line"/>
			<point x="153" y="0" type="line"/>
			<point x="153" y="10" type="line"/>
			<point x="108" y="30"/>
			<point x="85" y="56"/>
			<point x="92" y="90" type="curve"/>
			<point x="187" y="519" type="line"/>
			<point x="253" y="355"/>
			<point x="311" y="177"/>
		</contour>
	</outline>
</glyph>
<glyph name="N" format="2">
	<advance width="709"/>
	<unicode hex="004E"/>
	<outline>
		<contour>
			<point x="30" y="0" type="line"/>
			<point x="242" y="0" type="line"/>
			<point x="242" y="10" type="line"/>
			<point x="165" y="45"/>
			<point x="164" y="45"/>
			<point x="163" y="125" type="curve" smooth="yes"/>
			<point x="162" y="233"/>
			<point x="160" y="369"/>
			<point x="162" y="506" type="curve"/>
			<point x="293" y="424"/>
			<point x="421" y="336"/>
			<point x="547" y="243" type="curve"/>
			<point x="546" y="122" type="line" smooth="yes"/>
			<point x="545" y="52"/>
			<point x="544" y="43"/>
			<point x="487" y="10" type="curve"/>
			<point x="487" y="0" type="line"/>
			<point x="689" y="0" type="line"/>
			<point x="689" y="10" type="line"/>
			<point x="667" y="22"/>
			<point x="639" y="29"/>
			<point x="638" y="122" type="curve" smooth="yes"/>
			<point x="637" y="260"/>
			<point x="635" y="452"/>
			<point x="638" y="615" type="curve" smooth="yes"/>
			<point x="639" y="668"/>
			<point x="652" y="673"/>
			<point x="674" y="690" type="curve"/>
			<point x="674" y="700" type="line"/>
			<point x="475" y="700" type="line"/>
			<point x="475" y="690" type="line"/>
			<point x="539" y="662"/>
			<point x="545" y="658"/>
			<point x="546" y="615" type="curve" smooth="yes"/>
			<point x="548" y="521"/>
			<point x="548" y="420"/>
			<point x="547" y="335" type="curve"/>
			<point x="416" y="416"/>
			<point x="287" y="507"/>
			<point x="163" y="591" type="curve"/>
			<point x="164" y="662"/>
			<point x="166" y="660"/>
			<point x="214" y="690" type="curve"/>
			<point x="214" y="700" type="line"/>
			<point x="20" y="700" type="line"/>
			<point x="20" y="690" type="line"/>
			<point x="42" y="681"/>
			<point x="70" y="668"/>
			<point x="71" y="615" type="curve" smooth="yes"/>
			<point x="74" y="452"/>
			<point x="73" y="263"/>
			<point x="71" y="125" type="curve" smooth="yes"/>
			<point x="70" y="42"/>
			<point x="61" y="38"/>
			<point x="30" y="10" type="curve"/>
		</contour>
	</outline>
</glyph>
<glyph name="O" format="2">
	<advance width="711"/>
	<unicode hex="004F"/>
	<outline>
		<contour>
			<point x="355" y="-10" type="curve" smooth="yes"/>
			<point x="555" y="-10"/>
			<point x="686" y="150"/>
			<point x="686" y="340" type="curve" smooth="yes"/>
			<point x="686" y="540"/>
			<point x="555" y="710"/>
			<point x="356" y="710" type="curve" smooth="yes"/>
			<point x="156" y="710"/>
			<point x="25" y="540"/>
			<point x="25" y="340" type="curve" smooth="yes"/>
			<point x="25" y="150"/>
			<point x="156" y="-10"/>
		</contour>
		<contour>
			<point x="356" y="30" type="curve" smooth="yes"/>
			<point x="206" y="30"/>
			<point x="130" y="190"/>
			<point x="130" y="340" type="curve" smooth="yes"/>
			<point x="130" y="510"/>
			<point x="206" y="670"/>
			<point x="356" y="670" type="curve" smooth="yes"/>
			<point x="505" y="670"/>
			<point x="581" y="510"/>
			<point x="581" y="340" type="curve" smooth="yes"/>
			<point x="581" y="190"/>
			<point x="505" y="30"/>
		</contour>
	</outline>
</glyph>
<glyph name="P" format="2">
	<advance width="561"/>
	<unicode hex="0050"/>
	<outline>
		<contour>
			<point x="30" y="10" type="curve"/>
			<point x="30" y="0" type="line"/>
			<point x="272" y="0" type="line"/>
			<point x="272" y="10" type="line"/>
			<point x="195" y="38"/>
			<point x="175" y="45"/>
			<point x="173" y="85" type="curve"/>
			<point x="166" y="227"/>
			<point x="168" y="307"/>
			<point x="173" y="665" type="curve"/>
			<point x="240" y="665" type="line" smooth="yes"/>
			<point x="370" y="665"/>
			<point x="461" y="596"/>
			<point x="461" y="491" type="curve"/>
			<point x="461" y="367"/>
			<point x="392" y="317"/>
			<point x="252" y="317" type="curve"/>
			<point x="259" y="292" type="line"/>
			<point x="431" y="282"/>
			<point x="552" y="364"/>
			<point x="551" y="483" type="curve"/>
			<point x="550" y="632"/>
			<point x="423" y="702"/>
			<point x="271" y="702" type="curve"/>
			<point x="194" y="702"/>
			<point x="107" y="699"/>
			<point x="20" y="703" type="curve"/>
			<point x="20" y="693" type="line"/>
			<point x="62" y="675"/>
			<point x="80" y="658"/>
			<point x="81" y="605" type="curve"/>
			<point x="84" y="442"/>
			<point x="83" y="263"/>
			<point x="81" y="125" type="curve"/>
			<point x="80" y="52"/>
			<point x="72" y="28"/>
		</contour>
	</outline>
</glyph>
<glyph name="Q" format="2">
	<advance width="740"/>
	<unicode hex="0051"/>
	<outline>
		<contour>
			<point x="736" y="-230" type="curve"/>
			<point x="793" y="-220"/>
			<point x="893" y="-178"/>
			<point x="1060" y="-83" type="curve"/>
			<point x="1052" y="-54" type="line"/>
			<point x="960" y="-101"/>
			<point x="871" y="-145"/>
			<point x="794" y="-145" type="curve" smooth="yes"/>
			<point x="722" y="-145"/>
			<point x="603" y="-64"/>
			<point x="447" y="2" type="curve"/>
			<point x="595" y="42"/>
			<point x="686" y="181"/>
			<point x="686" y="340" type="curve" smooth="yes"/>
			<point x="686" y="540"/>
			<point x="555" y="710"/>
			<point x="356" y="710" type="curve" smooth="yes"/>
			<point x="156" y="710"/>
			<point x="25" y="540"/>
			<point x="25" y="340" type="curve" smooth="yes"/>
			<point x="25" y="168"/>
			<point x="133" y="20"/>
			<point x="301" y="-6" type="curve"/>
			<point x="430" y="-52"/>
			<point x="658" y="-221"/>
		</contour>
		<contour>
			<point x="362" y="38" type="curve" smooth="yes"/>
			<point x="230" y="38"/>
			<point x="130" y="137"/>
			<point x="130" y="340" type="curve" smooth="yes"/>
			<point x="130" y="510"/>
			<point x="206" y="670"/>
			<point x="356" y="670" type="curve" smooth="yes"/>
			<point x="505" y="670"/>
			<point x="581" y="510"/>
			<point x="581" y="340" type="curve" smooth="yes"/>
			<point x="581" y="203"/>
			<point x="518" y="38"/>
		</contour>
	</outline>
</glyph>
<glyph name="R" format="2">
	<advance width="615"/>
	<unicode hex="0052"/>
	<outline>
		<contour>
			<point x="22" y="10" type="curve"/>
			<point x="22" y="0" type="line"/>
			<point x="213" y="0" type="line"/>
			<point x="213" y="10" type="line"/>
			<point x="176" y="43"/>
			<point x="165" y="45"/>
			<point x="164" y="135" type="curve"/>
			<point x="163" y="197"/>
			<point x="163" y="267"/>
			<point x="163" y="342" type="curve"/>
			<point x="186" y="338"/>
			<point x="216" y="335"/>
			<point x="250" y="334" type="curve"/>
			<point x="430" y="90" type="line" smooth="yes"/>
			<point x="459" y="50"/>
			<point x="452" y="30"/>
			<point x="400" y="10" type="curve"/>
			<point x="400" y="0" type="line"/>
			<point x="625" y="0" type="line"/>
			<point x="625" y="10" type="line"/>
			<point x="531" y="101"/>
			<point x="406" y="244"/>
			<point x="332" y="344" type="curve"/>
			<point x="405" y="364"/>
			<point x="486" y="423"/>
			<point x="486" y="523" type="curve"/>
			<point x="486" y="628"/>
			<point x="389" y="710"/>
			<point x="279" y="710" type="curve"/>
			<point x="195" y="710"/>
			<point x="129" y="700"/>
			<point x="22" y="700" type="curve"/>
			<point x="20" y="690" type="line"/>
			<point x="62" y="671"/>
			<point x="72" y="658"/>
			<point x="73" y="605" type="curve"/>
			<point x="79" y="278"/>
			<point x="74" y="212"/>
			<point x="73" y="135" type="curve"/>
			<point x="72" y="52"/>
			<point x="62" y="42"/>
		</contour>
		<contour>
			<point x="263" y="372" type="curve"/>
			<point x="263" y="372" type="line"/>
			<point x="225" y="372"/>
			<point x="189" y="380"/>
			<point x="168" y="397" type="curve"/>
			<point x="168" y="662" type="line"/>
			<point x="279" y="693"/>
			<point x="396" y="657"/>
			<point x="396" y="523" type="curve"/>
			<point x="396" y="447"/>
			<point x="337" y="372"/>
		</contour>
	</outline>
</glyph>
<glyph name="S" format="2">
	<advance width="582"/>
	<unicode hex="0053"/>
	<outline>
		<contour>
			<point x="310" y="-10" type="curve" smooth="yes"/>
			<point x="422" y="-10"/>
			<point x="539" y="61"/>
			<point x="539" y="208" type="curve" smooth="yes"/>
			<point x="539" y="311"/>
			<point x="462" y="374"/>
			<point x="351" y="410" type="curve" smooth="yes"/>
			<point x="236" y="447"/>
			<point x="158" y="479"/>
			<point x="158" y="565" type="curve" smooth="yes"/>
			<point x="158" y="617"/>
			<point x="200" y="668"/>
			<point x="276" y="668" type="curve" smooth="yes"/>
			<point x="337" y="668"/>
			<point x="416" y="619"/>
			<point x="462" y="567" type="curve"/>
			<point x="484" y="610"/>
			<point x="516" y="651"/>
			<point x="552" y="693" type="curve"/>
			<point x="538" y="702" type="line"/>
			<point x="474" y="662" type="line"/>
			<point x="419" y="695"/>
			<point x="369" y="710"/>
			<point x="300" y="710" type="curve" smooth="yes"/>
			<point x="187" y="710"/>
			<point x="88" y="631"/>
			<point x="88" y="532" type="curve" smooth="yes"/>
			<point x="88" y="430"/>
			<point x="155" y="367"/>
			<point x="287" y="324" type="curve" smooth="yes"/>
			<point x="401" y="287"/>
			<point x="474" y="246"/>
			<point x="474" y="156" type="curve" smooth="yes"/>
			<point x="474" y="82"/>
			<point x="425" y="42"/>
			<point x="361" y="42" type="curve" smooth="yes"/>
			<point x="279" y="42"/>
			<point x="171" y="90"/>
			<point x="134" y="163" type="curve"/>
			<point x="129" y="163" type="line"/>
			<point x="107" y="112"/>
			<point x="82" y="70"/>
			<point x="38" y="11" type="curve"/>
			<point x="60" y="0" type="line"/>
			<point x="115" y="47" type="line"/>
			<point x="144" y="25"/>
			<point x="224" y="-10"/>
		</contour>
	</outline>
</glyph>
<glyph name="T" format="2">
	<advance width="660"/>
	<unicode hex="0054"/>
	<outline>
		<contour>
			<point x="246" y="0" type="line"/>
			<point x="457" y="0" type="line"/>
			<point x="457" y="10" type="line"/>
			<point x="400" y="35"/>
			<point x="379" y="32"/>
			<point x="378" y="72" type="curve" smooth="yes"/>
			<point x="376" y="259"/>
			<point x="378" y="443"/>
			<point x="378" y="615" type="curve" smooth="yes"/>
			<point x="378" y="621" type="line"/>
			<point x="456" y="620"/>
			<point x="535" y="619"/>
			<point x="603" y="620" type="curve"/>
			<point x="655" y="706" type="line"/>
			<point x="648" y="717" type="line"/>
			<point x="619" y="692"/>
			<point x="568" y="690"/>
			<point x="509" y="690" type="curve" smooth="yes"/>
			<point x="409" y="690"/>
			<point x="195" y="695"/>
			<point x="105" y="695" type="curve" smooth="yes"/>
			<point x="46" y="695"/>
			<point x="5" y="681"/>
			<point x="5" y="621" type="curve" smooth="yes"/>
			<point x="5" y="580"/>
			<point x="36" y="541"/>
			<point x="81" y="541" type="curve"/>
			<point x="86" y="547" type="line"/>
			<point x="50" y="565"/>
			<point x="62" y="626"/>
			<point x="120" y="626" type="curve" smooth="yes"/>
			<point x="164" y="626"/>
			<point x="211" y="625"/>
			<point x="287" y="623" type="curve"/>
			<point x="287" y="615" type="line" smooth="yes"/>
			<point x="287" y="452"/>
			<point x="288" y="263"/>
			<point x="286" y="85" type="curve" smooth="yes"/>
			<point x="286" y="32"/>
			<point x="268" y="27"/>
			<point x="246" y="10" type="curve"/>
		</contour>
	</outline>
</glyph>
<glyph name="U" format="2">
	<advance width="703"/>
	<unicode hex="0055"/>
	<outline>
		<contour>
			<point x="280" y="-10" type="curve"/>
			<point x="280" y="-10" type="line"/>
			<point x="361" y="-10"/>
			<point x="440" y="24"/>
			<point x="508" y="73" type="curve"/>
			<point x="508" y="49"/>
			<point x="507" y="25"/>
			<point x="506" y="0" type="curve"/>
			<point x="683" y="0" type="line"/>
			<point x="683" y="10" type="line"/>
			<point x="617" y="45"/>
			<point x="613" y="55"/>
			<point x="609" y="125" type="curve"/>
			<point x="601" y="262"/>
			<point x="602" y="443"/>
			<point x="604" y="555" type="curve"/>
			<point x="606" y="648"/>
			<point x="625" y="658"/>
			<point x="656" y="689" type="curve"/>
			<point x="656" y="700" type="line"/>
			<point x="437" y="700" type="line"/>
			<point x="437" y="690" type="line"/>
			<point x="489" y="664"/>
			<point x="507" y="668"/>
			<point x="508" y="615" type="curve"/>
			<point x="512" y="404"/>
			<point x="513" y="268"/>
			<point x="509" y="114" type="curve"/>
			<point x="470" y="86"/>
			<point x="389" y="60"/>
			<point x="320" y="60" type="curve"/>
			<point x="220" y="60"/>
			<point x="172" y="112"/>
			<point x="166" y="212" type="curve"/>
			<point x="158" y="361"/>
			<point x="162" y="500"/>
			<point x="167" y="609" type="curve"/>
			<point x="169" y="654"/>
			<point x="171" y="659"/>
			<point x="208" y="690" type="curve"/>
			<point x="208" y="700" type="line"/>
			<point x="20" y="700" type="line"/>
			<point x="20" y="690" type="line"/>
			<point x="60" y="659"/>
			<point x="70" y="649"/>
			<point x="70" y="600" type="curve"/>
			<point x="70" y="212" type="line" smooth="yes"/>
			<point x="70" y="62"/>
			<point x="144" y="-10"/>
		</contour>
	</outline>
</glyph>
<glyph name="V" format="2">
	<advance width="724"/>
	<unicode hex="0056"/>
	<outline>
		<contour>
			<point x="329" y="-10" type="line"/>
			<point x="364" y="-3" type="line"/>
			<point x="374" y="74"/>
			<point x="581" y="469"/>
			<point x="719" y="690" type="curve"/>
			<point x="719" y="700" type="line"/>
			<point x="513" y="700" type="line"/>
			<point x="513" y="690" type="line"/>
			<point x="590" y="647"/>
			<point x="595" y="622"/>
			<point x="570" y="567" type="curve" smooth="yes"/>
			<point x="363" y="113" type="line"/>
			<point x="309" y="265"/>
			<point x="227" y="411"/>
			<point x="169" y="571" type="curve" smooth="yes"/>
			<point x="150" y="624"/>
			<point x="145" y="641"/>
			<point x="218" y="690" type="curve"/>
			<point x="218" y="700" type="line"/>
			<point x="10" y="700" type="line"/>
			<point x="5" y="690" type="line"/>
		</contour>
	</outline>
</glyph>
<glyph name="W" format="2">
	<advance width="837"/>
	<unicode hex="0057"/>
	<outline>
		<contour>
			<point x="232" y="-10" type="curve"/>
			<point x="232" y="-10" type="line"/>
			<point x="267" y="-5" type="line"/>
			<point x="285" y="174"/>
			<point x="363" y="349"/>
			<point x="411" y="527" type="curve"/>
			<point x="479" y="353"/>
			<point x="538" y="175"/>
			<point x="590" y="-10" type="curve"/>
			<point x="625" y="-7" type="line"/>
			<point x="664" y="227"/>
			<point x="809" y="630"/>
			<point x="832" y="691" type="curve"/>
			<point x="832" y="700" type="line"/>
			<point x="667" y="697" type="line"/>
			<point x="667" y="687" type="line"/>
			<point x="732" y="647"/>
			<point x="747" y="624"/>
			<point x="738" y="582" type="curve"/>
			<point x="712" y="464"/>
			<point x="662" y="321"/>
			<point x="622" y="184" type="curve"/>
			<point x="497" y="594" type="line" smooth="yes"/>
			<point x="484" y="635"/>
			<point x="515" y="672"/>
			<point x="546" y="690" type="curve"/>
			<point x="546" y="700" type="line"/>
			<point x="334" y="700" type="line"/>
			<point x="334" y="690" type="line"/>
			<point x="360" y="680"/>
			<point x="377" y="627"/>
			<point x="384" y="599" type="curve"/>
			<point x="348" y="469"/>
			<point x="298" y="331"/>
			<point x="264" y="199" type="curve"/>
			<point x="143" y="594" type="line" smooth="yes"/>
			<point x="129" y="639"/>
			<point x="143" y="652"/>
			<point x="190" y="690" type="curve"/>
			<point x="190" y="700" type="line"/>
			<point x="5" y="700" type="line"/>
			<point x="5" y="690" type="line"/>
			<point x="88" y="458"/>
			<point x="164" y="224"/>
		</contour>
	</outline>
</glyph>
<glyph name="X" format="2">
	<advance width="746"/>
	<unicode hex="0058"/>
	<outline>
		<contour>
			<point x="5" y="0" type="line"/>
			<point x="240" y="0" type="line"/>
			<point x="240" y="13" type="line"/>
			<point x="190" y="43"/>
			<point x="154" y="57"/>
			<point x="192" y="104" type="curve" smooth="yes"/>
			<point x="361" y="313" type="line"/>
			<point x="428" y="232"/>
			<point x="493" y="153"/>
			<point x="542" y="90" type="curve" smooth="yes"/>
			<point x="561" y="66"/>
			<point x="556" y="53"/>
			<point x="502" y="15" type="curve"/>
			<point x="502" y="0" type="line"/>
			<point x="741" y="0" type="line"/>
			<point x="741" y="10" type="line"/>
			<point x="646" y="115"/>
			<point x="525" y="255"/>
			<point x="417" y="382" type="curve"/>
			<point x="714" y="690" type="line"/>
			<point x="714" y="700" type="line"/>
			<point x="489" y="700" type="line"/>
			<point x="489" y="687" type="line"/>
			<point x="555" y="657"/>
			<point x="573" y="646"/>
			<point x="541" y="603" type="curve" smooth="yes"/>
			<point x="395" y="408" type="line"/>
			<point x="333" y="481"/>
			<point x="278" y="548"/>
			<point x="237" y="599" type="curve" smooth="yes"/>
			<point x="205" y="639"/>
			<point x="213" y="655"/>
			<point x="255" y="685" type="curve"/>
			<point x="255" y="700" type="line"/>
			<point x="35" y="700" type="line"/>
			<point x="35" y="690" type="line"/>
			<point x="63" y="662"/>
			<point x="199" y="505"/>
			<point x="335" y="344" type="curve"/>
			<point x="5" y="10" type="line"/>
		</contour>
	</outline>
</glyph>
<glyph name="Y" format="2">
	<advance width="624"/>
	<unicode hex="0059"/>
	<outline>
		<contour>
			<point x="204" y="0" type="line"/>
			<point x="426" y="0" type="line"/>
			<point x="426" y="10" type="line"/>
			<point x="360" y="45"/>
			<point x="351" y="49"/>
			<point x="347" y="122" type="curve" smooth="yes"/>
			<point x="340" y="242"/>
			<point x="344" y="290"/>
			<point x="346" y="342" type="curve"/>
			<point x="437" y="458"/>
			<point x="597" y="675"/>
			<point x="619" y="690" type="curve"/>
			<point x="619" y="700" type="line"/>
			<point x="410" y="700" type="line"/>
			<point x="410" y="690" type="line"/>
			<point x="465" y="656"/>
			<point x="490" y="644"/>
			<point x="464" y="599" type="curve" smooth="yes"/>
			<point x="336" y="381" type="line"/>
			<point x="171" y="632" type="line" smooth="yes"/>
			<point x="154" y="658"/>
			<point x="173" y="662"/>
			<point x="224" y="690" type="curve"/>
			<point x="224" y="700" type="line"/>
			<point x="5" y="700" type="line"/>
			<point x="5" y="690" type="line"/>
			<point x="256" y="342" type="line"/>
			<point x="258" y="284"/>
			<point x="256" y="248"/>
			<point x="255" y="125" type="curve" smooth="yes"/>
			<point x="254" y="32"/>
			<point x="246" y="33"/>
			<point x="204" y="10" type="curve"/>
		</contour>
	</outline>
</glyph>
<glyph name="Z" format="2">
	<advance width="678"/>
	<unicode hex="005A"/>
	<outline>
		<contour>
			<point x="575" y="-10" type="curve"/>
			<point x="575" y="-10" type="line"/>
			<point x="613" y="20"/>
			<point x="644" y="73"/>
			<point x="662" y="146" type="curve"/>
			<point x="642" y="156" type="line"/>
			<point x="623" y="116"/>
			<point x="599" y="86"/>
			<point x="540" y="86" type="curve"/>
			<point x="479" y="86"/>
			<point x="312" y="102"/>
			<point x="169" y="114" type="curve"/>
			<point x="269" y="241"/>
			<point x="531" y="634"/>
			<point x="648" y="687" type="curve"/>
			<point x="634" y="710" type="line"/>
			<point x="588" y="695"/>
			<point x="522" y="677"/>
			<point x="432" y="677" type="curve"/>
			<point x="321" y="677"/>
			<point x="148" y="687"/>
			<point x="88" y="700" type="curve"/>
			<point x="54" y="652"/>
			<point x="36" y="599"/>
			<point x="19" y="549" type="curve"/>
			<point x="38" y="538" type="line"/>
			<point x="66" y="581"/>
			<point x="94" y="596"/>
			<point x="135" y="596" type="curve"/>
			<point x="237" y="596"/>
			<point x="366" y="587"/>
			<point x="474" y="587" type="curve"/>
			<point x="342" y="436"/>
			<point x="124" y="85"/>
			<point x="0" y="6" type="curve"/>
			<point x="37" y="-7" type="line"/>
			<point x="84" y="22"/>
			<point x="99" y="26"/>
			<point x="155" y="26" type="curve"/>
			<point x="257" y="26"/>
			<point x="501" y="-10"/>
		</contour>
	</outline>
</glyph>
<glyph name="a" format="2">
	<advance width="392"/>
	<unicode hex="0061"/>
	<outline>
		<contour>
			<point x="109" y="-10" type="curve" smooth="yes"/>
			<point x="147" y="-10"/>
			<point x="194" y="55"/>
			<point x="226" y="82" type="curve"/>
			<point x="232" y="53"/>
			<point x="259" y="-10"/>
			<point x="299" y="-10" type="curve"/>
			<point x="319" y="1"/>
			<point x="370" y="48"/>
			<point x="387" y="72" type="curve"/>
			<point x="382" y="82" type="line"/>
			<point x="376" y="78"/>
			<point x="366" y="75"/>
			<point x="355" y="75" type="curve" smooth="yes"/>
			<point x="333" y="75"/>
			<point x="308" y="83"/>
			<point x="308" y="111" type="curve" smooth="yes"/>
			<point x="308" y="310" type="line" smooth="yes"/>
			<point x="308" y="370"/>
			<point x="275" y="410"/>
			<point x="215" y="410" type="curve" smooth="yes"/>
			<point x="173" y="410"/>
			<point x="79" y="351"/>
			<point x="48" y="337" type="curve"/>
			<point x="56" y="322" type="line"/>
			<point x="100" y="340"/>
			<point x="134" y="350"/>
			<point x="165" y="350" type="curve" smooth="yes"/>
			<point x="205" y="350"/>
			<point x="228" y="318"/>
			<point x="228" y="278" type="curve" smooth="yes"/>
			<point x="228" y="273" type="line"/>
			<point x="157" y="228"/>
			<point x="58" y="176"/>
			<point x="32" y="135" type="curve"/>
			<point x="7" y="75"/>
			<point x="49" y="-10"/>
		</contour>
		<contour>
			<point x="159" y="75" type="curve" smooth="yes"/>
			<point x="128" y="75"/>
			<point x="101" y="93"/>
			<point x="101" y="133" type="curve" smooth="yes"/>
			<point x="101" y="188"/>
			<point x="186" y="231"/>
			<point x="228" y="233" type="curve"/>
			<point x="228" y="118" type="line"/>
			<point x="207" y="90"/>
			<point x="189" y="75"/>
		</contour>
	</outline>
</glyph>
<glyph name="b" format="2">
	<advance width="411"/>
	<unicode hex="0062"/>
	<outline>
		<contour>
			<point x="184" y="-10" type="curve"/>
			<point x="184" y="-10" type="line"/>
			<point x="214" y="0"/>
			<point x="319" y="80"/>
			<point x="340" y="99" type="curve"/>
			<point x="369" y="125"/>
			<point x="391" y="168"/>
			<point x="391" y="225" type="curve"/>
			<point x="391" y="315"/>
			<point x="331" y="400"/>
			<point x="236" y="410" type="curve"/>
			<point x="115" y="325" type="line"/>
			<point x="120" y="451"/>
			<point x="117" y="629"/>
			<point x="128" y="705" type="curve"/>
			<point x="121" y="710" type="line"/>
			<point x="10" y="634" type="line"/>
			<point x="10" y="629" type="line"/>
			<point x="29" y="586"/>
			<point x="38" y="558"/>
			<point x="38" y="488" type="curve"/>
			<point x="38" y="95" type="line"/>
			<point x="71" y="39"/>
			<point x="150" y="-2"/>
		</contour>
		<contour>
			<point x="241" y="60" type="curve"/>
			<point x="241" y="60" type="line"/>
			<point x="193" y="60"/>
			<point x="115" y="118"/>
			<point x="115" y="170" type="curve"/>
			<point x="115" y="295" type="line"/>
			<point x="124" y="305"/>
			<point x="154" y="325"/>
			<point x="184" y="325" type="curve"/>
			<point x="259" y="325"/>
			<point x="311" y="260"/>
			<point x="311" y="185" type="curve"/>
			<point x="311" y="110"/>
			<point x="260" y="72"/>
		</contour>
	</outline>
</glyph>
<glyph name="c" format="2">
	<advance width="285"/>
	<unicode hex="0063"/>
	<outline>
		<contour>
			<point x="116" y="-10" type="curve"/>
			<point x="163" y="6"/>
			<point x="232" y="57"/>
			<point x="267" y="85" type="curve"/>
			<point x="265" y="109" type="line"/>
			<point x="240" y="94"/>
			<point x="216" y="75"/>
			<point x="178" y="75" type="curve" smooth="yes"/>
			<point x="110" y="75"/>
			<point x="100" y="159"/>
			<point x="100" y="220" type="curve" smooth="yes"/>
			<point x="100" y="274"/>
			<point x="102" y="311"/>
			<point x="116" y="350" type="curve"/>
			<point x="134" y="349"/>
			<point x="181" y="327"/>
			<point x="212" y="295" type="curve"/>
			<point x="280" y="345" type="line"/>
			<point x="280" y="350" type="line"/>
			<point x="246" y="369"/>
			<point x="213" y="387"/>
			<point x="179" y="410" type="curve"/>
			<point x="145" y="394"/>
			<point x="69" y="357"/>
			<point x="39" y="325" type="curve"/>
			<point x="27" y="286"/>
			<point x="20" y="240"/>
			<point x="20" y="194" type="curve" smooth="yes"/>
			<point x="20" y="70"/>
			<point x="65" y="10"/>
		</contour>
	</outline>
</glyph>
<glyph name="d" format="2">
	<advance width="462"/>
	<unicode hex="0064"/>
	<outline>
		<contour>
			<point x="159" y="-10" type="curve"/>
			<point x="159" y="-10" type="line"/>
			<point x="204" y="26"/>
			<point x="250" y="57"/>
			<point x="295" y="83" type="curve"/>
			<point x="311" y="54"/>
			<point x="329" y="10"/>
			<point x="369" y="-10" type="curve"/>
			<point x="389" y="10"/>
			<point x="430" y="51"/>
			<point x="457" y="75" type="curve"/>
			<point x="452" y="85" type="line"/>
			<point x="420" y="79"/>
			<point x="378" y="99"/>
			<point x="378" y="131" type="curve"/>
			<point x="378" y="440" type="line" smooth="yes"/>
			<point x="378" y="503"/>
			<point x="381" y="649"/>
			<point x="388" y="707" type="curve"/>
			<point x="380" y="708" type="line"/>
			<point x="232" y="627" type="line"/>
			<point x="232" y="617" type="line"/>
			<point x="284" y="620"/>
			<point x="302" y="617"/>
			<point x="301" y="565" type="curve"/>
			<point x="298" y="410" type="line"/>
			<point x="92" y="318" type="line"/>
			<point x="50" y="293"/>
			<point x="20" y="228"/>
			<point x="20" y="163" type="curve"/>
			<point x="20" y="83"/>
			<point x="65" y="13"/>
		</contour>
		<contour>
			<point x="209" y="72" type="curve"/>
			<point x="209" y="72" type="line"/>
			<point x="139" y="72"/>
			<point x="100" y="129"/>
			<point x="100" y="199" type="curve"/>
			<point x="100" y="303"/>
			<point x="180" y="341"/>
			<point x="221" y="341" type="curve"/>
			<point x="256" y="341"/>
			<point x="284" y="321"/>
			<point x="302" y="297" type="curve"/>
			<point x="302" y="150" type="line" smooth="yes"/>
			<point x="302" y="113"/>
			<point x="254" y="72"/>
		</contour>
	</outline>
</glyph>
<glyph name="e" format="2">
	<advance width="299"/>
	<unicode hex="0065"/>
	<outline>
		<contour>
			<point x="164" y="-10" type="curve"/>
			<point x="164" y="-10" type="line"/>
			<point x="204" y="10"/>
			<point x="235" y="28"/>
			<point x="277" y="60" type="curve"/>
			<point x="272" y="75" type="line"/>
			<point x="211" y="55"/>
			<point x="139" y="74"/>
			<point x="117" y="146" type="curve"/>
			<point x="173" y="198"/>
			<point x="279" y="264"/>
			<point x="279" y="325" type="curve"/>
			<point x="279" y="377"/>
			<point x="216" y="410"/>
			<point x="186" y="410" type="curve"/>
			<point x="135" y="391"/>
			<point x="84" y="362"/>
			<point x="33" y="325" type="curve"/>
			<point x="-8" y="159"/>
			<point x="53" y="-10"/>
		</contour>
		<contour>
			<point x="107" y="169" type="curve"/>
			<point x="107" y="169" type="line"/>
			<point x="94" y="223"/>
			<point x="84" y="310"/>
			<point x="126" y="350" type="curve"/>
			<point x="156" y="351"/>
			<point x="199" y="322"/>
			<point x="199" y="282" type="curve"/>
			<point x="199" y="245"/>
			<point x="121" y="179"/>
		</contour>
	</outline>
</glyph>
<glyph name="f" format="2">
	<advance width="255"/>
	<unicode hex="0066"/>
	<outline>
		<contour>
			<point x="44" y="0" type="line"/>
			<point x="189" y="0" type="line"/>
			<point x="189" y="10" type="line"/>
			<point x="169" y="32"/>
			<point x="154" y="45"/>
			<point x="154" y="75" type="curve" smooth="yes"/>
			<point x="154" y="325" type="line"/>
			<point x="262" y="325" type="line"/>
			<point x="262" y="390" type="line"/>
			<point x="152" y="390" type="line"/>
			<point x="152" y="650" type="line"/>
			<point x="185" y="650"/>
			<point x="236" y="623"/>
			<point x="264" y="596" type="curve"/>
			<point x="325" y="662" type="line"/>
			<point x="325" y="665" type="line"/>
			<point x="287" y="695"/>
			<point x="253" y="710"/>
			<point x="216" y="710" type="curve" smooth="yes"/>
			<point x="203" y="710"/>
			<point x="75" y="624"/>
			<point x="75" y="614" type="curve" smooth="yes"/>
			<point x="75" y="383" type="line"/>
			<point x="30" y="330" type="line"/>
			<point x="32" y="325" type="line"/>
			<point x="74" y="325" type="line"/>
			<point x="74" y="75" type="line" smooth="yes"/>
			<point x="74" y="45"/>
			<point x="64" y="35"/>
			<point x="44" y="10" type="curve"/>
		</contour>
	</outline>
</glyph>
<glyph name="g" format="2">
	<advance width="441"/>
	<unicode hex="0067"/>
	<outline>
		<contour>
			<point x="225" y="-185" type="curve" smooth="yes"/>
			<point x="307" y="-185"/>
			<point x="390" y="-109"/>
			<point x="390" y="-39" type="curve" smooth="yes"/>
			<point x="390" y="37"/>
			<point x="312" y="142"/>
			<point x="312" y="210" type="curve" smooth="yes"/>
			<point x="312" y="257"/>
			<point x="359" y="291"/>
			<point x="372" y="299" type="curve"/>
			<point x="436" y="281" type="line"/>
			<point x="434" y="311"/>
			<point x="434" y="342"/>
			<point x="434" y="372" type="curve"/>
			<point x="364" y="383"/>
			<point x="285" y="402"/>
			<point x="244" y="410" type="curve"/>
			<point x="225" y="400"/>
			<point x="115" y="348"/>
			<point x="107" y="339" type="curve" smooth="yes"/>
			<point x="74" y="302"/>
			<point x="37" y="250"/>
			<point x="37" y="187" type="curve" smooth="yes"/>
			<point x="37" y="142"/>
			<point x="58" y="95"/>
			<point x="103" y="62" type="curve"/>
			<point x="20" y="-20" type="line"/>
			<point x="48" y="-113"/>
			<point x="139" y="-185"/>
		</contour>
		<contour>
			<point x="249" y="-150" type="curve" smooth="yes"/>
			<point x="192" y="-150"/>
			<point x="108" y="-63"/>
			<point x="108" y="13" type="curve" smooth="yes"/>
			<point x="108" y="38"/>
			<point x="122" y="66"/>
			<point x="227" y="139" type="curve"/>
			<point x="257" y="71"/>
			<point x="307" y="-5"/>
			<point x="307" y="-76" type="curve" smooth="yes"/>
			<point x="307" y="-116"/>
			<point x="295" y="-150"/>
		</contour>
		<contour>
			<point x="187" y="162" type="curve" smooth="yes"/>
			<point x="142" y="162"/>
			<point x="104" y="184"/>
			<point x="104" y="243" type="curve" smooth="yes"/>
			<point x="104" y="291"/>
			<point x="133" y="329"/>
			<point x="154" y="343" type="curve"/>
			<point x="191" y="343"/>
			<point x="274" y="326"/>
			<point x="329" y="307" type="curve"/>
			<point x="301" y="273"/>
			<point x="241" y="190"/>
			<point x="238" y="179" type="curve"/>
			<point x="223" y="165"/>
			<point x="210" y="162"/>
		</contour>
	</outline>
</glyph>
<glyph name="h" format="2">
	<advance width="434"/>
	<unicode hex="0068"/>
	<outline>
		<contour>
			<point x="186" y="-60" type="line"/>
			<point x="190" y="-65" type="line"/>
			<point x="330" y="-19"/>
			<point x="414" y="58"/>
			<point x="414" y="202" type="curve"/>
			<point x="414" y="317"/>
			<point x="343" y="380"/>
			<point x="252" y="410" type="curve"/>
			<point x="123" y="309" type="line"/>
			<point x="123" y="705" type="line"/>
			<point x="117" y="710" type="line"/>
			<point x="23" y="644" type="line"/>
			<point x="23" y="639" type="line"/>
			<point x="41" y="585"/>
			<point x="42" y="504"/>
			<point x="42" y="440" type="curve"/>
			<point x="42" y="125" type="line" smooth="yes"/>
			<point x="42" y="45"/>
			<point x="32" y="34"/>
			<point x="20" y="10" type="curve"/>
			<point x="20" y="0" type="line"/>
			<point x="148" y="0" type="line"/>
			<point x="148" y="10" type="line"/>
			<point x="134" y="31"/>
			<point x="122" y="45"/>
			<point x="122" y="85" type="curve"/>
			<point x="122" y="280" type="line"/>
			<point x="142" y="295"/>
			<point x="172" y="310"/>
			<point x="211" y="310" type="curve"/>
			<point x="291" y="310"/>
			<point x="359" y="252"/>
			<point x="359" y="152" type="curve"/>
			<point x="359" y="89"/>
			<point x="335" y="41"/>
			<point x="312" y="20" type="curve"/>
			<point x="297" y="9"/>
			<point x="234" y="3"/>
			<point x="213" y="7" type="curve"/>
		</contour>
	</outline>
</glyph>
<glyph name="i" format="2">
	<advance width="219"/>
	<unicode hex="0069"/>
	<outline>
		<contour>
			<point x="124" y="-10" type="curve"/>
			<point x="124" y="-10" type="line"/>
			<point x="154" y="16"/>
			<point x="184" y="38"/>
			<point x="214" y="56" type="curve"/>
			<point x="214" y="66" type="line"/>
			<point x="169" y="66"/>
			<point x="151" y="73"/>
			<point x="151" y="106" type="curve"/>
			<point x="151" y="330" type="line" smooth="yes"/>
			<point x="151" y="376"/>
			<point x="120" y="410"/>
			<point x="94" y="410" type="curve"/>
			<point x="15" y="330" type="line"/>
			<point x="16" y="320" type="line"/>
			<point x="46" y="330"/>
			<point x="71" y="315"/>
			<point x="71" y="269" type="curve"/>
			<point x="71" y="65" type="line" smooth="yes"/>
			<point x="71" y="27"/>
			<point x="97" y="-3"/>
		</contour>
		<contour>
			<point x="112" y="676" type="line"/>
			<point x="86" y="544" type="line"/>
			<point x="128" y="551" type="line"/>
			<point x="170" y="685" type="line"/>
		</contour>
	</outline>
</glyph>
<glyph name="j" format="2">
	<advance width="206"/>
	<unicode hex="006A"/>
	<outline>
		<contour>
			<point x="5" y="-235" type="curve"/>
			<point x="7" y="-257" type="line"/>
			<point x="105" y="-211"/>
			<point x="158" y="-138"/>
			<point x="158" y="-5" type="curve"/>
			<point x="158" y="403" type="line"/>
			<point x="148" y="410" type="line"/>
			<point x="9" y="316" type="line"/>
			<point x="9" y="306" type="line"/>
			<point x="59" y="312"/>
			<point x="78" y="294"/>
			<point x="78" y="244" type="curve"/>
			<point x="78" y="-9" type="line" smooth="yes"/>
			<point x="78" y="-112"/>
			<point x="58" y="-200"/>
		</contour>
		<contour>
			<point x="107" y="667" type="line"/>
			<point x="91" y="555" type="line"/>
			<point x="147" y="565" type="line"/>
			<point x="176" y="684" type="line"/>
		</contour>
	</outline>
</glyph>
<glyph name="k" format="2">
	<advance width="360"/>
	<unicode hex="006B"/>
	<outline>
		<contour>
			<point x="259" y="-10" type="curve"/>
			<point x="259" y="-10" type="line"/>
			<point x="300" y="1"/>
			<point x="335" y="19"/>
			<point x="360" y="41" type="curve"/>
			<point x="357" y="51" type="line"/>
			<point x="305" y="39"/>
			<point x="273" y="198"/>
			<point x="227" y="231" type="curve"/>
			<point x="255" y="253"/>
			<point x="283" y="266"/>
			<point x="311" y="288" type="curve"/>
			<point x="313" y="324"/>
			<point x="271" y="401"/>
			<point x="247" y="410" type="curve"/>
			<point x="135" y="325" type="line"/>
			<point x="135" y="706" type="line"/>
			<point x="128" y="710" type="line"/>
			<point x="20" y="648" type="line"/>
			<point x="21" y="638" type="line"/>
			<point x="51" y="598"/>
			<point x="54" y="584"/>
			<point x="54" y="509" type="curve"/>
			<point x="54" y="85" type="line" smooth="yes"/>
			<point x="54" y="45"/>
			<point x="46" y="22"/>
			<point x="39" y="10" type="curve"/>
			<point x="39" y="0" type="line"/>
			<point x="169" y="0" type="line"/>
			<point x="169" y="10" type="line"/>
			<point x="143" y="32"/>
			<point x="134" y="45"/>
			<point x="134" y="85" type="curve"/>
			<point x="134" y="190" type="line"/>
			<point x="195" y="189"/>
			<point x="219" y="52"/>
		</contour>
		<contour>
			<point x="136" y="207" type="curve"/>
			<point x="136" y="207" type="line"/>
			<point x="136" y="306" type="line"/>
			<point x="185" y="340"/>
			<point x="225" y="325"/>
			<point x="225" y="285" type="curve"/>
			<point x="225" y="256"/>
			<point x="187" y="223"/>
		</contour>
	</outline>
</glyph>
<glyph name="l" format="2">
	<advance width="207"/>
	<unicode hex="006C"/>
	<outline>
		<contour>
			<point x="132" y="-10" type="curve"/>
			<point x="152" y="7"/>
			<point x="172" y="22"/>
			<point x="212" y="51" type="curve"/>
			<point x="212" y="66" type="line"/>
			<point x="162" y="71"/>
			<point x="136" y="78"/>
			<point x="134" y="141" type="curve" smooth="yes"/>
			<point x="131" y="242"/>
			<point x="135" y="515"/>
			<point x="138" y="706" type="curve"/>
			<point x="131" y="710" type="line"/>
			<point x="20" y="638" type="line"/>
			<point x="22" y="628" type="line"/>
			<point x="52" y="616"/>
			<point x="56" y="603"/>
			<point x="56" y="563" type="curve" smooth="yes"/>
			<point x="52" y="94" type="line" smooth="yes"/>
			<point x="52" y="44"/>
			<point x="77" y="4"/>
		</contour>
	</outline>
</glyph>
<glyph name="m" format="2">
	<advance width="600"/>
	<unicode hex="006D"/>
	<outline>
		<contour>
			<point x="50" y="0" type="line"/>
			<point x="185" y="0" type="line"/>
			<point x="185" y="10" type="line"/>
			<point x="165" y="34"/>
			<point x="155" y="37"/>
			<point x="155" y="70" type="curve" smooth="yes"/>
			<point x="155" y="298" type="line"/>
			<point x="172" y="313"/>
			<point x="192" y="330"/>
			<point x="218" y="330" type="curve" smooth="yes"/>
			<point x="248" y="330"/>
			<point x="275" y="311"/>
			<point x="275" y="271" type="curve" smooth="yes"/>
			<point x="275" y="65" type="line" smooth="yes"/>
			<point x="275" y="38"/>
			<point x="269" y="35"/>
			<point x="249" y="10" type="curve"/>
			<point x="249" y="0" type="line"/>
			<point x="386" y="0" type="line"/>
			<point x="386" y="10" type="line"/>
			<point x="366" y="32"/>
			<point x="355" y="38"/>
			<point x="355" y="65" type="curve" smooth="yes"/>
			<point x="355" y="293" type="line"/>
			<point x="372" y="317"/>
			<point x="399" y="330"/>
			<point x="420" y="330" type="curve" smooth="yes"/>
			<point x="449" y="330"/>
			<point x="475" y="310"/>
			<point x="475" y="270" type="curve" smooth="yes"/>
			<point x="475" y="75" type="line" smooth="yes"/>
			<point x="475" y="48"/>
			<point x="470" y="34"/>
			<point x="455" y="10" type="curve"/>
			<point x="455" y="0" type="line"/>
			<point x="580" y="0" type="line"/>
			<point x="580" y="10" type="line"/>
			<point x="560" y="36"/>
			<point x="555" y="48"/>
			<point x="555" y="75" type="curve" smooth="yes"/>
			<point x="555" y="315" type="line" smooth="yes"/>
			<point x="555" y="365"/>
			<point x="490" y="410"/>
			<point x="460" y="410" type="curve"/>
			<point x="354" y="326" type="line"/>
			<point x="348" y="371"/>
			<point x="294" y="410"/>
			<point x="266" y="410" type="curve"/>
			<point x="155" y="325" type="line"/>
			<point x="155" y="327" type="line" smooth="yes"/>
			<point x="155" y="355"/>
			<point x="115" y="400"/>
			<point x="95" y="410" type="curve"/>
			<point x="5" y="340" type="line"/>
			<point x="5" y="325" type="line"/>
			<point x="45" y="325"/>
			<point x="75" y="311"/>
			<point x="75" y="280" type="curve" smooth="yes"/>
			<point x="75" y="70" type="line" smooth="yes"/>
			<point x="75" y="37"/>
			<point x="70" y="37"/>
			<point x="50" y="10" type="curve"/>
		</contour>
	</outline>
</glyph>
<glyph name="n" format="2">
	<advance width="410"/>
	<unicode hex="006E"/>
	<outline>
		<contour>
			<point x="42" y="10" type="curve"/>
			<point x="42" y="0" type="line"/>
			<point x="182" y="0" type="line"/>
			<point x="182" y="10" type="line"/>
			<point x="162" y="32"/>
			<point x="152" y="44"/>
			<point x="152" y="74" type="curve"/>
			<point x="152" y="291" type="line"/>
			<point x="167" y="307"/>
			<point x="189" y="326"/>
			<point x="219" y="326" type="curve"/>
			<point x="249" y="326"/>
			<point x="280" y="311"/>
			<point x="280" y="271" type="curve"/>
			<point x="280" y="74" type="line" smooth="yes"/>
			<point x="280" y="44"/>
			<point x="270" y="31"/>
			<point x="250" y="10" type="curve"/>
			<point x="250" y="0" type="line"/>
			<point x="390" y="0" type="line"/>
			<point x="390" y="10" type="line"/>
			<point x="370" y="33"/>
			<point x="360" y="44"/>
			<point x="360" y="74" type="curve"/>
			<point x="360" y="305" type="line" smooth="yes"/>
			<point x="360" y="365"/>
			<point x="316" y="410"/>
			<point x="266" y="410" type="curve"/>
			<point x="229" y="378"/>
			<point x="192" y="349"/>
			<point x="155" y="325" type="curve"/>
			<point x="154" y="372"/>
			<point x="117" y="396"/>
			<point x="93" y="410" type="curve"/>
			<point x="20" y="345" type="line"/>
			<point x="20" y="335" type="line"/>
			<point x="60" y="315"/>
			<point x="72" y="301"/>
			<point x="72" y="260" type="curve"/>
			<point x="72" y="74" type="line" smooth="yes"/>
			<point x="72" y="44"/>
			<point x="62" y="32"/>
		</contour>
	</outline>
</glyph>
<glyph name="o" format="2">
	<advance width="382"/>
	<unicode hex="006F"/>
	<outline>
		<contour>
			<point x="185" y="-10" type="curve"/>
			<point x="185" y="-10" type="line"/>
			<point x="213" y="-1"/>
			<point x="299" y="66"/>
			<point x="307" y="75" type="curve"/>
			<point x="332" y="103"/>
			<point x="362" y="153"/>
			<point x="362" y="218" type="curve"/>
			<point x="362" y="318"/>
			<point x="290" y="401"/>
			<point x="200" y="410" type="curve"/>
			<point x="190" y="410"/>
			<point x="90" y="335"/>
			<point x="79" y="325" type="curve"/>
			<point x="52" y="301"/>
			<point x="20" y="247"/>
			<point x="20" y="182" type="curve"/>
			<point x="20" y="82"/>
			<point x="95" y="-1"/>
		</contour>
		<contour>
			<point x="247" y="65" type="curve"/>
			<point x="247" y="65" type="line"/>
			<point x="167" y="65"/>
			<point x="95" y="137"/>
			<point x="95" y="217" type="curve"/>
			<point x="95" y="257"/>
			<point x="110" y="305"/>
			<point x="137" y="335" type="curve"/>
			<point x="217" y="335"/>
			<point x="287" y="263"/>
			<point x="287" y="183" type="curve"/>
			<point x="287" y="133"/>
			<point x="272" y="96"/>
		</contour>
	</outline>
</glyph>
<glyph name="p" format="2">
	<advance width="444"/>
	<unicode hex="0070"/>
	<outline>
		<contour>
			<point x="70" y="-258" type="line"/>
			<point x="81" y="-262" type="line"/>
			<point x="121" y="-233"/>
			<point x="156" y="-210"/>
			<point x="205" y="-183" type="curve"/>
			<point x="206" y="-173" type="line"/>
			<point x="173" y="-170"/>
			<point x="157" y="-161"/>
			<point x="156" y="-137" type="curve"/>
			<point x="150" y="4" type="line"/>
			<point x="177" y="-5"/>
			<point x="219" y="-10"/>
			<point x="241" y="-10" type="curve"/>
			<point x="275" y="0"/>
			<point x="367" y="75"/>
			<point x="384" y="97" type="curve"/>
			<point x="407" y="125"/>
			<point x="424" y="178"/>
			<point x="424" y="225" type="curve"/>
			<point x="424" y="315"/>
			<point x="351" y="410"/>
			<point x="254" y="410" type="curve"/>
			<point x="219" y="377"/>
			<point x="185" y="349"/>
			<point x="150" y="324" type="curve"/>
			<point x="150" y="422" type="line"/>
			<point x="144" y="425" type="line"/>
			<point x="23" y="340" type="line"/>
			<point x="23" y="325" type="line"/>
			<point x="55" y="328"/>
			<point x="74" y="309"/>
			<point x="74" y="269" type="curve"/>
			<point x="74" y="122" type="line"/>
			<point x="15" y="91" type="line"/>
			<point x="15" y="87" type="line"/>
			<point x="35" y="77"/>
			<point x="54" y="62"/>
			<point x="74" y="40" type="curve"/>
		</contour>
		<contour>
			<point x="294" y="45" type="curve"/>
			<point x="294" y="45" type="line"/>
			<point x="297" y="46" type="line"/>
			<point x="296" y="45"/>
			<point x="295" y="45"/>
		</contour>
		<contour>
			<point x="270" y="42" type="curve"/>
			<point x="270" y="42" type="line"/>
			<point x="221" y="41"/>
			<point x="172" y="68"/>
			<point x="150" y="91" type="curve"/>
			<point x="150" y="295" type="line"/>
			<point x="165" y="305"/>
			<point x="202" y="315"/>
			<point x="232" y="315" type="curve"/>
			<point x="299" y="315"/>
			<point x="362" y="260"/>
			<point x="362" y="175" type="curve"/>
			<point x="362" y="109"/>
			<point x="314" y="62"/>
		</contour>
	</outline>
</glyph>
<glyph name="q" format="2">
	<advance width="388"/>
	<unicode hex="0071"/>
	<outline>
		<contour>
			<point x="274" y="72" type="line"/>
			<point x="270" y="-250" type="line"/>
			<point x="358" y="-250" type="line"/>
			<point x="352" y="156"/>
			<point x="352" y="247"/>
			<point x="355" y="403" type="curve"/>
			<point x="350" y="406" type="line"/>
			<point x="306" y="384" type="line"/>
			<point x="218" y="410" type="line"/>
			<point x="105" y="315" type="line" smooth="yes"/>
			<point x="36" y="257"/>
			<point x="20" y="198"/>
			<point x="20" y="141" type="curve"/>
			<point x="20" y="63"/>
			<point x="81" y="10"/>
			<point x="150" y="-10" type="curve"/>
		</contour>
		<contour>
			<point x="201" y="75" type="curve"/>
			<point x="201" y="75" type="line"/>
			<point x="141" y="75"/>
			<point x="97" y="121"/>
			<point x="97" y="181" type="curve"/>
			<point x="97" y="241"/>
			<point x="122" y="296"/>
			<point x="160" y="325" type="curve"/>
			<point x="194" y="325"/>
			<point x="252" y="303"/>
			<point x="276" y="284" type="curve"/>
			<point x="274" y="107" type="line"/>
			<point x="256" y="91"/>
			<point x="234" y="75"/>
		</contour>
	</outline>
</glyph>
<glyph name="r" format="2">
	<advance width="274"/>
	<unicode hex="0072"/>
	<outline>
		<contour>
			<point x="42" y="10" type="curve"/>
			<point x="42" y="0" type="line"/>
			<point x="189" y="0" type="line"/>
			<point x="189" y="10" type="line"/>
			<point x="160" y="29"/>
			<point x="154" y="52"/>
			<point x="154" y="72" type="curve"/>
			<point x="154" y="156"/>
			<point x="155" y="290"/>
			<point x="151" y="324" type="curve"/>
			<point x="169" y="335"/>
			<point x="203" y="291"/>
			<point x="213" y="285" type="curve"/>
			<point x="274" y="356" type="line"/>
			<point x="204" y="411" type="line"/>
			<point x="148" y="348" type="line"/>
			<point x="144" y="373"/>
			<point x="106" y="403"/>
			<point x="74" y="410" type="curve"/>
			<point x="20" y="345" type="line"/>
			<point x="20" y="335" type="line"/>
			<point x="56" y="335"/>
			<point x="72" y="302"/>
			<point x="72" y="261" type="curve"/>
			<point x="72" y="72" type="line" smooth="yes"/>
			<point x="72" y="52"/>
			<point x="68" y="31"/>
		</contour>
	</outline>
</glyph>
<glyph name="s" format="2">
	<advance width="288"/>
	<unicode hex="0073"/>
	<outline>
		<contour>
			<point x="137" y="-10" type="curve" smooth="yes"/>
			<point x="170" y="-10"/>
			<point x="273" y="49"/>
			<point x="273" y="114" type="curve" smooth="yes"/>
			<point x="273" y="157"/>
			<point x="235" y="196"/>
			<point x="185" y="233" type="curve" smooth="yes"/>
			<point x="129" y="275"/>
			<point x="91" y="317"/>
			<point x="123" y="347" type="curve"/>
			<point x="150" y="342"/>
			<point x="173" y="314"/>
			<point x="200" y="303" type="curve"/>
			<point x="262" y="356" type="line"/>
			<point x="262" y="361" type="line"/>
			<point x="246" y="365"/>
			<point x="205" y="386"/>
			<point x="176" y="410" type="curve"/>
			<point x="173" y="410" type="line"/>
			<point x="150" y="400"/>
			<point x="38" y="323"/>
			<point x="38" y="281" type="curve" smooth="yes"/>
			<point x="38" y="248"/>
			<point x="73" y="211"/>
			<point x="121" y="175" type="curve" smooth="yes"/>
			<point x="162" y="144"/>
			<point x="214" y="106"/>
			<point x="214" y="74" type="curve" smooth="yes"/>
			<point x="214" y="54"/>
			<point x="202" y="39"/>
			<point x="182" y="39" type="curve" smooth="yes"/>
			<point x="155" y="39"/>
			<point x="100" y="82"/>
			<point x="81" y="115" type="curve"/>
			<point x="57" y="95"/>
			<point x="34" y="78"/>
			<point x="10" y="64" type="curve"/>
			<point x="42" y="28"/>
			<point x="97" y="-10"/>
		</contour>
	</outline>
</glyph>
<glyph name="t" format="2">
	<advance width="253"/>
	<unicode hex="0074"/>
	<outline>
		<contour>
			<point x="132" y="-10" type="curve"/>
			<point x="157" y="0"/>
			<point x="215" y="34"/>
			<point x="241" y="50" type="curve"/>
			<point x="236" y="65" type="line"/>
			<point x="157" y="65"/>
			<point x="136" y="80"/>
			<point x="136" y="143" type="curve" smooth="yes"/>
			<point x="136" y="325" type="line"/>
			<point x="248" y="325" type="line"/>
			<point x="245" y="390" type="line"/>
			<point x="136" y="390" type="line"/>
			<point x="136" y="460" type="line"/>
			<point x="130" y="460" type="line"/>
			<point x="10" y="340" type="line"/>
			<point x="10" y="332" type="line"/>
			<point x="46" y="324"/>
			<point x="56" y="312"/>
			<point x="56" y="291" type="curve" smooth="yes"/>
			<point x="56" y="80" type="line" smooth="yes"/>
			<point x="56" y="30"/>
			<point x="87" y="9"/>
		</contour>
	</outline>
</glyph>
<glyph name="u" format="2">
	<advance width="405"/>
	<unicode hex="0075"/>
	<outline>
		<contour>
			<point x="151" y="-11" type="curve"/>
			<point x="181" y="6"/>
			<point x="234" y="50"/>
			<point x="261" y="65" type="curve"/>
			<point x="281" y="31"/>
			<point x="309" y="0"/>
			<point x="326" y="-10" type="curve"/>
			<point x="400" y="65" type="line"/>
			<point x="400" y="75" type="line"/>
			<point x="370" y="79"/>
			<point x="340" y="89"/>
			<point x="341" y="155" type="curve" smooth="yes"/>
			<point x="342" y="220"/>
			<point x="341" y="314"/>
			<point x="345" y="408" type="curve"/>
			<point x="341" y="410" type="line"/>
			<point x="258" y="382" type="line"/>
			<point x="265" y="314"/>
			<point x="261" y="187"/>
			<point x="261" y="109" type="curve"/>
			<point x="256" y="81"/>
			<point x="227" y="64"/>
			<point x="198" y="64" type="curve" smooth="yes"/>
			<point x="168" y="64"/>
			<point x="138" y="79"/>
			<point x="138" y="139" type="curve" smooth="yes"/>
			<point x="138" y="307" type="line" smooth="yes"/>
			<point x="138" y="355"/>
			<point x="125" y="385"/>
			<point x="68" y="410" type="curve"/>
			<point x="10" y="339" type="line"/>
			<point x="10" y="329" type="line"/>
			<point x="46" y="311"/>
			<point x="58" y="299"/>
			<point x="58" y="257" type="curve" smooth="yes"/>
			<point x="58" y="75" type="line" smooth="yes"/>
			<point x="58" y="30"/>
			<point x="106" y="-11"/>
		</contour>
	</outline>
</glyph>
<glyph name="v" format="2">
	<advance width="449"/>
	<unicode hex="0076"/>
	<outline>
		<contour>
			<point x="130" y="219" type="curve"/>
			<point x="242" y="-10" type="line"/>
			<point x="267" y="-10" type="line"/>
			<point x="384" y="181"/>
			<point x="429" y="252"/>
			<point x="429" y="310" type="curve"/>
			<point x="429" y="361"/>
			<point x="394" y="410"/>
			<point x="321" y="410" type="curve"/>
			<point x="198" y="273" type="line"/>
			<point x="157" y="362"/>
			<point x="153" y="380"/>
			<point x="63" y="410" type="curve"/>
			<point x="0" y="329" type="line"/>
			<point x="4" y="319" type="line"/>
			<point x="72" y="338"/>
			<point x="93" y="296"/>
		</contour>
		<contour>
			<point x="291" y="84" type="curve"/>
			<point x="291" y="84" type="line"/>
			<point x="218" y="234" type="line"/>
			<point x="226" y="281"/>
			<point x="266" y="313"/>
			<point x="303" y="313" type="curve"/>
			<point x="338" y="313"/>
			<point x="364" y="292"/>
			<point x="364" y="245" type="curve"/>
			<point x="364" y="184"/>
			<point x="321" y="130"/>
		</contour>
	</outline>
</glyph>
<glyph name="w" format="2">
	<advance width="587"/>
	<unicode hex="0077"/>
	<outline>
		<contour>
			<point x="204" y="-10" type="line"/>
			<point x="219" y="-10" type="line"/>
			<point x="330" y="165" type="line"/>
			<point x="400" y="-10" type="line"/>
			<point x="415" y="-10" type="line"/>
			<point x="488" y="101" type="line" smooth="yes"/>
			<point x="548" y="193"/>
			<point x="567" y="232"/>
			<point x="567" y="281" type="curve" smooth="yes"/>
			<point x="567" y="322"/>
			<point x="540" y="402"/>
			<point x="464" y="410" type="curve"/>
			<point x="371" y="280" type="line"/>
			<point x="334" y="356" type="line" smooth="yes"/>
			<point x="316" y="392"/>
			<point x="288" y="409"/>
			<point x="238" y="410" type="curve"/>
			<point x="167" y="317" type="line"/>
			<point x="138" y="387"/>
			<point x="117" y="396"/>
			<point x="60" y="412" type="curve"/>
			<point x="0" y="332" type="line"/>
			<point x="6" y="323" type="line"/>
			<point x="62" y="336"/>
			<point x="75" y="317"/>
			<point x="102" y="248" type="curve" smooth="yes"/>
		</contour>
		<contour>
			<point x="252" y="97" type="curve"/>
			<point x="175" y="295" type="line"/>
			<point x="234" y="359"/>
			<point x="308" y="301"/>
			<point x="308" y="222" type="curve" smooth="yes"/>
			<point x="308" y="173"/>
			<point x="283" y="133"/>
		</contour>
		<contour>
			<point x="449" y="92" type="curve"/>
			<point x="386" y="243" type="line"/>
			<point x="389" y="264"/>
			<point x="420" y="309"/>
			<point x="451" y="309" type="curve" smooth="yes"/>
			<point x="487" y="309"/>
			<point x="510" y="278"/>
			<point x="510" y="239" type="curve" smooth="yes"/>
			<point x="510" y="174"/>
			<point x="473" y="132"/>
		</contour>
	</outline>
</glyph>
<glyph name="x" format="2">
	<advance width="365"/>
	<unicode hex="0078"/>
	<outline>
		<contour>
			<point x="103" y="95" type="line"/>
			<point x="-25" y="-142" type="line"/>
			<point x="11" y="-142" type="line"/>
			<point x="117" y="67" type="line"/>
			<point x="138" y="35"/>
			<point x="181" y="3"/>
			<point x="220" y="-10" type="curve"/>
			<point x="360" y="88" type="line"/>
			<point x="342" y="100" type="line"/>
			<point x="317" y="88"/>
			<point x="303" y="75"/>
			<point x="272" y="75" type="curve"/>
			<point x="232" y="75"/>
			<point x="183" y="92"/>
			<point x="183" y="153" type="curve"/>
			<point x="183" y="301" type="line"/>
			<point x="228" y="328"/>
			<point x="253" y="280"/>
			<point x="296" y="280" type="curve"/>
			<point x="356" y="354" type="line"/>
			<point x="356" y="363" type="line"/>
			<point x="320" y="372"/>
			<point x="273" y="388"/>
			<point x="256" y="409" type="curve"/>
			<point x="251" y="409" type="line"/>
			<point x="178" y="325" type="line"/>
			<point x="169" y="361"/>
			<point x="136" y="400"/>
			<point x="68" y="410" type="curve"/>
			<point x="8" y="334" type="line"/>
			<point x="14" y="325" type="line"/>
			<point x="65" y="345"/>
			<point x="103" y="318"/>
			<point x="103" y="264" type="curve"/>
		</contour>
	</outline>
</glyph>
<glyph name="y" format="2">
	<advance width="362"/>
	<unicode hex="0079"/>
	<outline>
		<contour>
			<point x="76" y="-260" type="curve"/>
			<point x="76" y="-260" type="line"/>
			<point x="124" y="-260"/>
			<point x="234" y="-219"/>
			<point x="308" y="-219" type="curve"/>
			<point x="325" y="-219"/>
			<point x="332" y="-223"/>
			<point x="326" y="-260" type="curve"/>
			<point x="345" y="-254" type="line"/>
			<point x="362" y="-189"/>
			<point x="363" y="-153"/>
			<point x="333" y="-143" type="curve"/>
			<point x="258" y="-143"/>
			<point x="69" y="-200"/>
			<point x="69" y="-163" type="curve"/>
			<point x="69" y="-130"/>
			<point x="146" y="-52"/>
			<point x="216" y="45" type="curve"/>
			<point x="281" y="135"/>
			<point x="334" y="208"/>
			<point x="334" y="291" type="curve"/>
			<point x="334" y="358"/>
			<point x="294" y="410"/>
			<point x="217" y="410" type="curve"/>
			<point x="154" y="325" type="line"/>
			<point x="131" y="359"/>
			<point x="84" y="399"/>
			<point x="50" y="410" type="curve"/>
			<point x="5" y="319" type="line"/>
			<point x="10" y="304" type="line"/>
			<point x="34" y="332"/>
			<point x="80" y="303"/>
			<point x="82" y="253" type="curve"/>
			<point x="85" y="167"/>
			<point x="83" y="80"/>
			<point x="82" y="-6" type="curve"/>
			<point x="81" y="-101"/>
			<point x="26" y="-170"/>
			<point x="7" y="-198" type="curve"/>
			<point x="7" y="-231"/>
			<point x="30" y="-260"/>
		</contour>
		<contour>
			<point x="151" y="-1" type="curve"/>
			<point x="151" y="-1" type="line"/>
			<point x="151" y="100"/>
			<point x="154" y="202"/>
			<point x="158" y="303" type="curve"/>
			<point x="211" y="330"/>
			<point x="264" y="298"/>
			<point x="264" y="238" type="curve"/>
			<point x="264" y="163"/>
			<point x="237" y="121"/>
		</contour>
	</outline>
</glyph>
<glyph name="z" format="2">
	<advance width="347"/>
	<unicode hex="007A"/>
	<outline>
		<contour>
			<point x="17" y="-4" type="line"/>
			<point x="109" y="4"/>
			<point x="198" y="0"/>
			<point x="290" y="0" type="curve"/>
			<point x="324" y="90" type="line"/>
			<point x="321" y="93" type="line"/>
			<point x="301" y="82"/>
			<point x="280" y="75"/>
			<point x="249" y="75" type="curve" smooth="yes"/>
			<point x="118" y="76" type="line"/>
			<point x="185" y="189"/>
			<point x="256" y="294"/>
			<point x="332" y="398" type="curve"/>
			<point x="327" y="404" type="line"/>
			<point x="311" y="400"/>
			<point x="189" y="400"/>
			<point x="67" y="400" type="curve"/>
			<point x="17" y="309" type="line"/>
			<point x="32" y="307" type="line"/>
			<point x="69" y="335"/>
			<point x="143" y="325"/>
			<point x="243" y="326" type="curve"/>
			<point x="178" y="222"/>
			<point x="90" y="89"/>
			<point x="15" y="1" type="curve"/>
		</contour>
	</outline>
</glyph>
<glyph name="dieresis" format="2">
	<advance width="287"/>
	<unicode hex="00A8"/>
	<outline>
		<contour>
			<point x="150" y="483" type="line"/>
			<point x="205" y="483" type="line"/>
			<point x="267" y="560" type="line"/>
			<point x="265" y="564" type="line"/>
			<point x="197" y="564" type="line"/>
			<point x="150" y="485" type="line"/>
		</contour>
		<contour>
			<point x="20" y="483" type="line"/>
			<point x="75" y="483" type="line"/>
			<point x="137" y="560" type="line"/>
			<point x="135" y="564" type="line"/>
			<point x="67" y="564" type="line"/>
			<point x="20" y="485" type="line"/>
		</contour>
	</outline>
</glyph>
<glyph name="AE" format="2">
	<advance width="853"/>
	<unicode hex="00C6"/>
	<outline>
		<contour>
			<point x="817" y="-46" type="curve"/>
			<point x="817" y="-46" type="line"/>
			<point x="828" y="-46" type="line"/>
			<point x="828" y="87" type="line"/>
			<point x="818" y="87" type="line"/>
			<point x="801" y="66"/>
			<point x="785" y="40"/>
			<point x="735" y="40" type="curve"/>
			<point x="640" y="40" type="line" smooth="yes"/>
			<point x="583" y="40"/>
			<point x="561" y="57"/>
			<point x="561" y="110" type="curve"/>
			<point x="560" y="347" type="line"/>
			<point x="758" y="344" type="line" smooth="yes"/>
			<point x="788" y="344"/>
			<point x="788" y="334"/>
			<point x="818" y="288" type="curve"/>
			<point x="828" y="288" type="line"/>
			<point x="828" y="431" type="line"/>
			<point x="818" y="431" type="line"/>
			<point x="795" y="390"/>
			<point x="787" y="384"/>
			<point x="757" y="384" type="curve"/>
			<point x="560" y="384" type="line"/>
			<point x="561" y="660" type="line"/>
			<point x="750" y="660" type="line" smooth="yes"/>
			<point x="779" y="660"/>
			<point x="792" y="643"/>
			<point x="818" y="599" type="curve"/>
			<point x="828" y="599" type="line"/>
			<point x="828" y="700" type="line"/>
			<point x="334" y="700" type="line"/>
			<point x="334" y="683" type="line"/>
			<point x="376" y="668"/>
			<point x="400" y="662"/>
			<point x="434" y="649" type="curve"/>
			<point x="5" y="10" type="line"/>
			<point x="10" y="0" type="line"/>
			<point x="238" y="0" type="line"/>
			<point x="238" y="10" type="line"/>
			<point x="161" y="49"/>
			<point x="149" y="80"/>
			<point x="175" y="123" type="curve"/>
			<point x="309" y="344" type="line"/>
			<point x="475" y="344" type="line"/>
			<point x="476" y="253"/>
			<point x="474" y="161"/>
			<point x="469" y="70" type="curve"/>
			<point x="456" y="51"/>
			<point x="434" y="32"/>
			<point x="402" y="10" type="curve"/>
			<point x="402" y="0" type="line"/>
			<point x="765" y="0" type="line" smooth="yes"/>
			<point x="785" y="0"/>
			<point x="792" y="-10"/>
		</contour>
		<contour>
			<point x="475" y="384" type="line"/>
			<point x="334" y="384" type="line"/>
			<point x="474" y="616" type="line"/>
			<point x="475" y="605" type="line"/>
		</contour>
	</outline>
</glyph>
<glyph name="Udieresis" format="2">
	<advance width="703"/>
	<unicode hex="00DC"/>
	<outline>
		<contour>
			<point x="280" y="-10" type="curve" smooth="yes"/>
			<point x="361" y="-10"/>
			<point x="440" y="24"/>
			<point x="508" y="73" type="curve"/>
			<point x="508" y="49"/>
			<point x="507" y="25"/>
			<point x="506" y="0" type="curve"/>
			<point x="683" y="0" type="line"/>
			<point x="683" y="10" type="line"/>
			<point x="617" y="45"/>
			<point x="613" y="55"/>
			<point x="609" y="125" type="curve" smooth="yes"/>
			<point x="601" y="262"/>
			<point x="603" y="443"/>
			<point x="605" y="555" type="curve" smooth="yes"/>
			<point x="607" y="648"/>
			<point x="626" y="658"/>
			<point x="657" y="689" type="curve"/>
			<point x="657" y="700" type="line"/>
			<point x="407" y="700" type="line"/>
			<point x="407" y="690" type="line"/>
			<point x="489" y="664"/>
			<point x="507" y="668"/>
			<point x="508" y="615" type="curve" smooth="yes"/>
			<point x="512" y="404"/>
			<point x="513" y="268"/>
			<point x="509" y="114" type="curve"/>
			<point x="470" y="86"/>
			<point x="389" y="60"/>
			<point x="320" y="60" type="curve" smooth="yes"/>
			<point x="220" y="60"/>
			<point x="172" y="112"/>
			<point x="166" y="212" type="curve" smooth="yes"/>
			<point x="158" y="361"/>
			<point x="162" y="500"/>
			<point x="167" y="609" type="curve" smooth="yes"/>
			<point x="169" y="654"/>
			<point x="171" y="659"/>
			<point x="268" y="690" type="curve"/>
			<point x="268" y="700" type="line"/>
			<point x="20" y="700" type="line"/>
			<point x="20" y="690" type="line"/>
			<point x="60" y="659"/>
			<point x="70" y="649"/>
			<point x="70" y="600" type="curve" smooth="yes"/>
			<point x="70" y="212" type="line" smooth="yes"/>
			<point x="70" y="62"/>
			<point x="144" y="-10"/>
		</contour>
		<contour>
			<point x="197" y="772" type="line"/>
			<point x="225" y="779"/>
			<point x="267" y="772"/>
			<point x="302" y="772" type="curve"/>
			<point x="332" y="833" type="line"/>
			<point x="224" y="833" type="line"/>
			<point x="197" y="774" type="line"/>
		</contour>
		<contour>
			<point x="364" y="772" type="line"/>
			<point x="459" y="772" type="line"/>
			<point x="506" y="831" type="line"/>
			<point x="468" y="825"/>
			<point x="439" y="828"/>
			<point x="401" y="829" type="curve"/>
			<point x="364" y="774" type="line"/>
		</contour>
	</outline>
</glyph>
<glyph name="germandbls" format="2">
	<advance width="355"/>
	<unicode hex="00DF"/>
	<outline>
		<contour>
			<point x="64" y="-223" type="line"/>
			<point x="202" y="-223"/>
			<point x="263" y="-188"/>
			<point x="286" y="-167" type="curve" smooth="yes"/>
			<point x="303" y="-152"/>
			<point x="355" y="-80"/>
			<point x="355" y="15" type="curve" smooth="yes"/>
			<point x="355" y="122"/>
			<point x="316" y="188"/>
			<point x="231" y="217" type="curve"/>
			<point x="273" y="246"/>
			<point x="306" y="288"/>
			<point x="306" y="320" type="curve" smooth="yes"/>
			<point x="306" y="371"/>
			<point x="224" y="410"/>
			<point x="204" y="410" type="curve"/>
			<point x="125" y="344" type="line"/>
			<point x="125" y="650" type="line"/>
			<point x="178" y="669"/>
			<point x="237" y="613"/>
			<point x="265" y="586" type="curve"/>
			<point x="329" y="643" type="line"/>
			<point x="329" y="646" type="line"/>
			<point x="298" y="686"/>
			<point x="234" y="710"/>
			<point x="187" y="710" type="curve" smooth="yes"/>
			<point x="164" y="710"/>
			<point x="45" y="624"/>
			<point x="45" y="614" type="curve" smooth="yes"/>
			<point x="45" y="140" type="line" smooth="yes"/>
			<point x="45" y="50"/>
			<point x="39" y="29"/>
			<point x="20" y="10" type="curve"/>
			<point x="20" y="0" type="line"/>
			<point x="67" y="0"/>
			<point x="113" y="1"/>
			<point x="160" y="-3" type="curve"/>
			<point x="160" y="7" type="line"/>
			<point x="132" y="38"/>
			<point x="125" y="46"/>
			<point x="125" y="137" type="curve" smooth="yes"/>
			<point x="125" y="151" type="line"/>
			<point x="197" y="186"/>
			<point x="287" y="78"/>
			<point x="287" y="-35" type="curve" smooth="yes"/>
			<point x="287" y="-125"/>
			<point x="261" y="-153"/>
			<point x="245" y="-166" type="curve" smooth="yes"/>
			<point x="236" y="-173"/>
			<point x="156" y="-171"/>
			<point x="112" y="-160" type="curve"/>
		</contour>
		<contour>
			<point x="125" y="178" type="curve"/>
			<point x="125" y="325" type="line"/>
			<point x="194" y="354"/>
			<point x="226" y="306"/>
			<point x="226" y="275" type="curve" smooth="yes"/>
			<point x="226" y="229"/>
			<point x="162" y="197"/>
		</contour>
	</outline>
</glyph>
<glyph name="udieresis" format="2">
	<advance width="398"/>
	<unicode hex="00FC"/>
	<outline>
		<contour>
			<point x="149" y="-11" type="curve"/>
			<point x="247" y="74" type="line"/>
			<point x="254" y="44"/>
			<point x="281" y="-10"/>
			<point x="320" y="-10" type="curve"/>
			<point x="340" y="10"/>
			<point x="366" y="36"/>
			<point x="393" y="60" type="curve"/>
			<point x="393" y="72" type="line"/>
			<point x="357" y="72"/>
			<point x="329" y="89"/>
			<point x="329" y="132" type="curve" smooth="yes"/>
			<point x="329" y="422" type="line"/>
			<point x="325" y="424" type="line"/>
			<point x="249" y="371" type="line"/>
			<point x="249" y="162" type="line" smooth="yes"/>
			<point x="249" y="96"/>
			<point x="220" y="74"/>
			<point x="195" y="74" type="curve" smooth="yes"/>
			<point x="155" y="74"/>
			<point x="131" y="95"/>
			<point x="131" y="155" type="curve" smooth="yes"/>
			<point x="131" y="209"/>
			<point x="130" y="316"/>
			<point x="140" y="400" type="curve"/>
			<point x="132" y="410" type="line"/>
			<point x="50" y="353" type="line"/>
			<point x="50" y="85" type="line" smooth="yes"/>
			<point x="50" y="60"/>
			<point x="114" y="-11"/>
		</contour>
		<contour>
			<point x="76" y="463" type="line"/>
			<point x="141" y="467" type="line"/>
			<point x="193" y="540" type="line"/>
			<point x="191" y="544" type="line"/>
			<point x="123" y="544" type="line"/>
			<point x="76" y="465" type="line"/>
		</contour>
		<contour>
			<point x="206" y="463" type="line"/>
			<point x="282" y="463" type="line"/>
			<point x="345" y="547" type="line"/>
			<point x="343" y="551" type="line"/>
			<point x="253" y="544" type="line"/>
			<point x="206" y="465" type="line"/>
		</contour>
	</outline>
</glyph>
<glyph name="OE" format="2">
	<advance width="921"/>
	<unicode hex="0152"/>
	<outline>
		<contour>
			<point x="886" y="-56" type="curve"/>
			<point x="886" y="-56" type="line"/>
			<point x="896" y="-56" type="line"/>
			<point x="896" y="82" type="line"/>
			<point x="886" y="82" type="line"/>
			<point x="863" y="47"/>
			<point x="852" y="35"/>
			<point x="827" y="35" type="curve"/>
			<point x="682" y="35"/>
			<point x="622" y="26"/>
			<point x="619" y="89" type="curve"/>
			<point x="616" y="155"/>
			<point x="618" y="277"/>
			<point x="618" y="352" type="curve"/>
			<point x="783" y="352" type="line" smooth="yes"/>
			<point x="853" y="352"/>
			<point x="861" y="332"/>
			<point x="886" y="286" type="curve"/>
			<point x="896" y="286" type="line"/>
			<point x="896" y="434" type="line"/>
			<point x="886" y="434" type="line"/>
			<point x="863" y="403"/>
			<point x="853" y="387"/>
			<point x="783" y="387" type="curve"/>
			<point x="618" y="387" type="line"/>
			<point x="618" y="457"/>
			<point x="619" y="540"/>
			<point x="619" y="615" type="curve"/>
			<point x="619" y="660" type="line"/>
			<point x="810" y="660" type="line" smooth="yes"/>
			<point x="841" y="660"/>
			<point x="850" y="651"/>
			<point x="886" y="579" type="curve"/>
			<point x="896" y="579" type="line"/>
			<point x="896" y="700" type="line"/>
			<point x="546" y="700" type="line" smooth="yes"/>
			<point x="482" y="698"/>
			<point x="398" y="710"/>
			<point x="355" y="710" type="curve"/>
			<point x="156" y="710"/>
			<point x="25" y="540"/>
			<point x="25" y="340" type="curve"/>
			<point x="25" y="150"/>
			<point x="156" y="-15"/>
			<point x="361" y="-15" type="curve"/>
			<point x="426" y="-15"/>
			<point x="470" y="-9"/>
			<point x="518" y="0" type="curve"/>
			<point x="812" y="0" type="line" smooth="yes"/>
			<point x="852" y="0"/>
			<point x="860" y="-11"/>
		</contour>
		<contour>
			<point x="363" y="25" type="curve"/>
			<point x="363" y="25" type="line"/>
			<point x="214" y="25"/>
			<point x="130" y="190"/>
			<point x="130" y="340" type="curve"/>
			<point x="130" y="510"/>
			<point x="216" y="669"/>
			<point x="365" y="669" type="curve"/>
			<point x="446" y="669"/>
			<point x="494" y="639"/>
			<point x="527" y="619" type="curve"/>
			<point x="527" y="98" type="line"/>
			<point x="489" y="64"/>
			<point x="445" y="25"/>
		</contour>
	</outline>
</glyph>
<glyph name="quoteleft" format="2">
	<advance width="218"/>
	<unicode hex="2018"/>
	<outline>
		<contour>
			<point x="20" y="446" type="line"/>
			<point x="53" y="446" type="line"/>
			<point x="198" y="624" type="line"/>
			<point x="121" y="716" type="line"/>
			<point x="63" y="639" type="line"/>
			<point x="106" y="597" type="line"/>
		</contour>
	</outline>
</glyph>
<glyph name="quoteright" format="2">
	<advance width="225"/>
	<unicode hex="2019"/>
	<outline>
		<contour>
			<point x="107" y="439" type="line"/>
			<point x="111" y="439" type="line"/>
			<point x="163" y="500" type="line"/>
			<point x="163" y="504" type="line"/>
			<point x="117" y="544" type="line"/>
			<point x="205" y="700" type="line"/>
			<point x="172" y="700" type="line"/>
			<point x="20" y="515" type="line"/>
		</contour>
	</outline>
</glyph>
<glyph name="quotesinglbase" format="2">
	<advance width="218"/>
	<unicode hex="201A"/>
	<outline>
		<contour>
			<point x="20" y="-152" type="line"/>
			<point x="53" y="-152" type="line"/>
			<point x="198" y="26" type="line"/>
			<point x="121" y="118" type="line"/>
			<point x="63" y="41" type="line"/>
			<point x="106" y="-1" type="line"/>
		</contour>
	</outline>
</glyph>
<glyph name="quotedblbase" format="2">
	<advance width="449"/>
	<unicode hex="201E"/>
	<outline>
		<contour>
			<point x="106" y="-1" type="line"/>
			<point x="20" y="-152" type="line"/>
			<point x="53" y="-152" type="line"/>
			<point x="198" y="26" type="line"/>
			<point x="121" y="118" type="line"/>
			<point x="63" y="41" type="line"/>
		</contour>
		<contour>
			<point x="337" y="-1" type="line"/>
			<point x="251" y="-152" type="line"/>
			<point x="284" y="-152" type="line"/>
			<point x="429" y="26" type="line"/>
			<point x="352" y="118" type="line"/>
			<point x="294" y="41" type="line"/>
		</contour>
	</outline>
</glyph>
<glyph name="Totenkopf2" format="2">
	<advance width="748"/>
	<outline>
		<contour>
			<point x="553" y="0" type="line"/>
			<point x="549" y="34"/>
			<point x="593" y="96"/>
			<point x="540" y="101" type="curve"/>
			<point x="486" y="129"/>
			<point x="475" y="195"/>
			<point x="472" y="200" type="curve" smooth="yes"/>
			<point x="469" y="205"/>
			<point x="464" y="192"/>
			<point x="461" y="131" type="curve"/>
			<point x="454" y="109"/>
			<point x="465" y="207"/>
			<point x="455" y="200" type="curve"/>
			<point x="446" y="197"/>
			<point x="453" y="115"/>
			<point x="446" y="123" type="curve"/>
			<point x="435" y="140"/>
			<point x="446" y="213"/>
			<point x="436" y="200" type="curve" smooth="yes"/>
			<point x="429" y="191"/>
			<point x="426" y="101"/>
			<point x="422" y="105" type="curve" smooth="yes"/>
			<point x="418" y="109"/>
			<point x="426" y="194"/>
			<point x="423" y="195" type="curve" smooth="yes"/>
			<point x="420" y="196"/>
			<point x="418" y="101"/>
			<point x="413" y="100" type="curve" smooth="yes"/>
			<point x="402" y="98"/>
			<point x="414" y="199"/>
			<point x="412" y="201" type="curve"/>
			<point x="409" y="200"/>
			<point x="404" y="200"/>
			<point x="401" y="202" type="curve" smooth="yes"/>
			<point x="398" y="204"/>
			<point x="401" y="70"/>
			<point x="395" y="65" type="curve" smooth="yes"/>
			<point x="389" y="60"/>
			<point x="388" y="66"/>
			<point x="387" y="66" type="curve" smooth="yes"/>
			<point x="384" y="66"/>
			<point x="384" y="43"/>
			<point x="382" y="41" type="curve" smooth="yes"/>
			<point x="380" y="39"/>
			<point x="373" y="35"/>
			<point x="373" y="37" type="curve" smooth="yes"/>
			<point x="373" y="42"/>
			<point x="369" y="61"/>
			<point x="379" y="61" type="curve" smooth="yes"/>
			<point x="382" y="61"/>
			<point x="391" y="205"/>
			<point x="389" y="207" type="curve" smooth="yes"/>
			<point x="387" y="209"/>
			<point x="378" y="218"/>
			<point x="378" y="215" type="curve" smooth="yes"/>
			<point x="378" y="212"/>
			<point x="370" y="13"/>
			<point x="358" y="9" type="curve" smooth="yes"/>
			<point x="346" y="5"/>
			<point x="363" y="202"/>
			<point x="365" y="228" type="curve"/>
			<point x="358" y="234"/>
			<point x="356" y="242"/>
			<point x="350" y="246" type="curve" smooth="yes"/>
			<point x="344" y="250"/>
			<point x="335" y="6"/>
			<point x="333" y="4" type="curve" smooth="yes"/>
			<point x="321" y="-7"/>
			<point x="335" y="244"/>
			<point x="339" y="242" type="curve" smooth="yes"/>
			<point x="345" y="239"/>
			<point x="346" y="249"/>
			<point x="343" y="256" type="curve" smooth="yes"/>
			<point x="340" y="263"/>
			<point x="370" y="238"/>
			<point x="374" y="239" type="curve" smooth="yes"/>
			<point x="378" y="240"/>
			<point x="381" y="238"/>
			<point x="381" y="235" type="curve" smooth="yes"/>
			<point x="381" y="231"/>
			<point x="404" y="220"/>
			<point x="408" y="220" type="curve" smooth="yes"/>
			<point x="412" y="220"/>
			<point x="406" y="226"/>
			<point x="410" y="227" type="curve" smooth="yes"/>
			<point x="414" y="228"/>
			<point x="418" y="227"/>
			<point x="418" y="221" type="curve" smooth="yes"/>
			<point x="418" y="218"/>
			<point x="474" y="218"/>
			<point x="478" y="216" type="curve" smooth="yes"/>
			<point x="482" y="214"/>
			<point x="496" y="233"/>
			<point x="486" y="235" type="curve" smooth="yes"/>
			<point x="477" y="236"/>
			<point x="486" y="272"/>
			<point x="483" y="279" type="curve" smooth="yes"/>
			<point x="480" y="286"/>
			<point x="486" y="292"/>
			<point x="484" y="300" type="curve"/>
			<point x="480" y="306"/>
			<point x="485" y="308"/>
			<point x="485" y="310" type="curve" smooth="yes"/>
			<point x="484" y="316"/>
			<point x="481" y="321"/>
			<point x="480" y="316" type="curve" smooth="yes"/>
			<point x="479" y="311"/>
			<point x="475" y="310"/>
			<point x="476" y="308" type="curve" smooth="yes"/>
			<point x="477" y="306"/>
			<point x="480" y="302"/>
			<point x="480" y="300" type="curve" smooth="yes"/>
			<point x="480" y="298"/>
			<point x="478" y="292"/>
			<point x="478" y="290" type="curve" smooth="yes"/>
			<point x="478" y="288"/>
			<point x="476" y="282"/>
			<point x="475" y="279" type="curve" smooth="yes"/>
			<point x="474" y="275"/>
			<point x="476" y="257"/>
			<point x="473" y="258" type="curve" smooth="yes"/>
			<point x="470" y="259"/>
			<point x="465" y="250"/>
			<point x="459" y="252" type="curve"/>
			<point x="459" y="261"/>
			<point x="467" y="290"/>
			<point x="470" y="289" type="curve" smooth="yes"/>
			<point x="473" y="288"/>
			<point x="472" y="301"/>
			<point x="469" y="301" type="curve" smooth="yes"/>
			<point x="466" y="301"/>
			<point x="473" y="310"/>
			<point x="470" y="312" type="curve" smooth="yes"/>
			<point x="467" y="314"/>
			<point x="473" y="319"/>
			<point x="475" y="319" type="curve" smooth="yes"/>
			<point x="477" y="319"/>
			<point x="487" y="323"/>
			<point x="484" y="325" type="curve" smooth="yes"/>
			<point x="481" y="327"/>
			<point x="476" y="336"/>
			<point x="479" y="335" type="curve" smooth="yes"/>
			<point x="481" y="334"/>
			<point x="482" y="331"/>
			<point x="484" y="332" type="curve" smooth="yes"/>
			<point x="486" y="333"/>
			<point x="482" y="339"/>
			<point x="485" y="340" type="curve" smooth="yes"/>
			<point x="489" y="341"/>
			<point x="489" y="353"/>
			<point x="483" y="361" type="curve"/>
			<point x="477" y="364"/>
			<point x="464" y="333"/>
			<point x="455" y="325" type="curve"/>
			<point x="455" y="324"/>
			<point x="461" y="283"/>
			<point x="458" y="285" type="curve" smooth="yes"/>
			<point x="455" y="287"/>
			<point x="444" y="298"/>
			<point x="444" y="318" type="curve" smooth="yes"/>
			<point x="444" y="338"/>
			<point x="454" y="338"/>
			<point x="451" y="339" type="curve" smooth="yes"/>
			<point x="448" y="340"/>
			<point x="443" y="363"/>
			<point x="441" y="361" type="curve" smooth="yes"/>
			<point x="439" y="359"/>
			<point x="422" y="353"/>
			<point x="419" y="354" type="curve" smooth="yes"/>
			<point x="415" y="355"/>
			<point x="419" y="336"/>
			<point x="417" y="331" type="curve" smooth="yes"/>
			<point x="415" y="326"/>
			<point x="413" y="294"/>
			<point x="409" y="292" type="curve" smooth="yes"/>
			<point x="405" y="290"/>
			<point x="421" y="287"/>
			<point x="425" y="280" type="curve" smooth="yes"/>
			<point x="429" y="273"/>
			<point x="428" y="253"/>
			<point x="424" y="253" type="curve" smooth="yes"/>
			<point x="420" y="253"/>
			<point x="413" y="250"/>
			<point x="413" y="254" type="curve" smooth="yes"/>
			<point x="413" y="258"/>
			<point x="417" y="275"/>
			<point x="417" y="278" type="curve" smooth="yes"/>
			<point x="417" y="281"/>
			<point x="411" y="285"/>
			<point x="410" y="282" type="curve" smooth="yes"/>
			<point x="409" y="279"/>
			<point x="394" y="258"/>
			<point x="394" y="261" type="curve" smooth="yes"/>
			<point x="394" y="264"/>
			<point x="403" y="296"/>
			<point x="401" y="297" type="curve" smooth="yes"/>
			<point x="399" y="298"/>
			<point x="400" y="306"/>
			<point x="397" y="305" type="curve" smooth="yes"/>
			<point x="386" y="300"/>
			<point x="384" y="306"/>
			<point x="381" y="322" type="curve" smooth="yes"/>
			<point x="378" y="338"/>
			<point x="375" y="333"/>
			<point x="373" y="330" type="curve" smooth="yes"/>
			<point x="371" y="327"/>
			<point x="372" y="316"/>
			<point x="355" y="326" type="curve" smooth="yes"/>
			<point x="338" y="336"/>
			<point x="346" y="358"/>
			<point x="312" y="385" type="curve"/>
			<point x="311" y="387"/>
			<point x="290" y="378"/>
			<point x="292" y="381" type="curve" smooth="yes"/>
			<point x="299" y="394"/>
			<point x="319" y="405"/>
			<point x="324" y="401" type="curve" smooth="yes"/>
			<point x="329" y="397"/>
			<point x="358" y="372"/>
			<point x="362" y="373" type="curve" smooth="yes"/>
			<point x="364" y="373"/>
			<point x="338" y="423"/>
			<point x="341" y="423" type="curve"/>
			<point x="352" y="429"/>
			<point x="380" y="379"/>
			<point x="404" y="379" type="curve" smooth="yes"/>
			<point x="430" y="377"/>
			<point x="468" y="401"/>
			<point x="471" y="402" type="curve" smooth="yes"/>
			<point x="480" y="404"/>
			<point x="491" y="377"/>
			<point x="500" y="374" type="curve"/>
			<point x="501" y="373"/>
			<point x="508" y="394"/>
			<point x="516" y="394" type="curve" smooth="yes"/>
			<point x="517" y="394"/>
			<point x="524" y="387"/>
			<point x="524" y="384" type="curve" smooth="yes"/>
			<point x="524" y="381"/>
			<point x="529" y="343"/>
			<point x="527" y="340" type="curve" smooth="yes"/>
			<point x="525" y="337"/>
			<point x="513" y="319"/>
			<point x="510" y="316" type="curve" smooth="yes"/>
			<point x="507" y="313"/>
			<point x="496" y="296"/>
			<point x="497" y="293" type="curve" smooth="yes"/>
			<point x="498" y="290"/>
			<point x="498" y="276"/>
			<point x="499" y="277" type="curve" smooth="yes"/>
			<point x="500" y="278"/>
			<point x="510" y="272"/>
			<point x="500" y="246" type="curve" smooth="yes"/>
			<point x="490" y="221"/>
			<point x="501" y="226"/>
			<point x="491" y="201" type="curve" smooth="yes"/>
			<point x="489" y="195"/>
			<point x="498" y="201"/>
			<point x="498" y="206" type="curve" smooth="yes"/>
			<point x="498" y="211"/>
			<point x="502" y="226"/>
			<point x="504" y="230" type="curve" smooth="yes"/>
			<point x="510" y="243"/>
			<point x="502" y="241"/>
			<point x="516" y="263" type="curve" smooth="yes"/>
			<point x="535" y="293"/>
			<point x="524" y="313"/>
			<point x="527" y="313" type="curve" smooth="yes"/>
			<point x="533" y="313"/>
			<point x="542" y="305"/>
			<point x="545" y="307" type="curve" smooth="yes"/>
			<point x="548" y="309"/>
			<point x="545" y="332"/>
			<point x="543" y="345" type="curve" smooth="yes"/>
			<point x="542" y="352"/>
			<point x="534" y="371"/>
			<point x="536" y="378" type="curve" smooth="yes"/>
			<point x="538" y="385"/>
			<point x="549" y="418"/>
			<point x="553" y="422" type="curve" smooth="yes"/>
			<point x="585" y="460"/>
			<point x="564" y="575"/>
			<point x="502" y="644" type="curve"/>
			<point x="498" y="655"/>
			<point x="488" y="691"/>
			<point x="480" y="694" type="curve" smooth="yes"/>
			<point x="472" y="697"/>
			<point x="439" y="653"/>
			<point x="436" y="652" type="curve" smooth="yes"/>
			<point x="433" y="651"/>
			<point x="393" y="705"/>
			<point x="388" y="701" type="curve"/>
			<point x="369" y="692"/>
			<point x="308" y="637"/>
			<point x="289" y="619" type="curve"/>
			<point x="251" y="600"/>
			<point x="181" y="483"/>
			<point x="185" y="444" type="curve" smooth="yes"/>
			<point x="187" y="426"/>
			<point x="58" y="136"/>
			<point x="51" y="135" type="curve"/>
			<point x="51" y="91" type="line"/>
			<point x="113" y="209"/>
			<point x="199" y="364"/>
			<point x="207" y="470" type="curve" smooth="yes"/>
			<point x="212" y="536"/>
			<point x="311" y="616"/>
			<point x="331" y="624" type="curve" smooth="yes"/>
			<point x="381" y="644"/>
			<point x="480" y="630"/>
			<point x="493" y="624" type="curve"/>
			<point x="494" y="603"/>
			<point x="500" y="599"/>
			<point x="494" y="596" type="curve" smooth="yes"/>
			<point x="488" y="593"/>
			<point x="304" y="592"/>
			<point x="260" y="545" type="curve" smooth="yes"/>
			<point x="220" y="502"/>
			<point x="211" y="385"/>
			<point x="209" y="382" type="curve"/>
			<point x="209" y="371"/>
			<point x="74" y="79"/>
			<point x="51" y="65" type="curve"/>
			<point x="48" y="55"/>
			<point x="51" y="2"/>
			<point x="50" y="1" type="curve"/>
		</contour>
		<contour>
			<point x="564" y="0" type="curve"/>
			<point x="588" y="0" type="line"/>
			<point x="608" y="101" type="line"/>
			<point x="599" y="98"/>
			<point x="591" y="97"/>
			<point x="578" y="97" type="curve"/>
			<point x="585" y="77"/>
			<point x="573" y="61"/>
		</contour>
		<contour>
			<point x="596" y="0" type="line"/>
			<point x="698" y="0" type="line"/>
			<point x="693" y="24"/>
			<point x="707" y="150"/>
			<point x="616" y="105" type="curve"/>
		</contour>
		<contour>
			<point x="486" y="239" type="curve" smooth="yes"/>
			<point x="488" y="238"/>
			<point x="489" y="238"/>
			<point x="491" y="239" type="curve"/>
			<point x="496" y="268" type="line"/>
			<point x="496" y="285"/>
			<point x="482" y="283"/>
			<point x="485" y="277" type="curve" smooth="yes"/>
			<point x="489" y="271"/>
			<point x="485" y="240"/>
		</contour>
		<contour>
			<point x="454" y="343" type="curve" smooth="yes"/>
			<point x="459" y="340"/>
			<point x="457" y="363"/>
			<point x="473" y="369" type="curve"/>
			<point x="475" y="369"/>
			<point x="475" y="376"/>
			<point x="473" y="375" type="curve" smooth="yes"/>
			<point x="469" y="373"/>
			<point x="447" y="370"/>
			<point x="449" y="364" type="curve"/>
			<point x="453" y="360"/>
			<point x="452" y="344"/>
		</contour>
		<contour>
			<point x="241" y="336" type="curve"/>
			<point x="217" y="402"/>
			<point x="232" y="453"/>
			<point x="268" y="517" type="curve" smooth="yes"/>
			<point x="303" y="579"/>
			<point x="525" y="553"/>
			<point x="531" y="552" type="curve" smooth="yes"/>
			<point x="537" y="551"/>
			<point x="537" y="479"/>
			<point x="526" y="485" type="curve" smooth="yes"/>
			<point x="519" y="489"/>
			<point x="428" y="513"/>
			<point x="426" y="515" type="curve" smooth="yes"/>
			<point x="424" y="517"/>
			<point x="308" y="469"/>
			<point x="317" y="465" type="curve" smooth="yes"/>
			<point x="326" y="461"/>
			<point x="303" y="436"/>
			<point x="296" y="421" type="curve"/>
			<point x="305" y="470" type="line" smooth="yes"/>
			<point x="306" y="478"/>
			<point x="389" y="514"/>
			<point x="385" y="520" type="curve" smooth="yes"/>
			<point x="381" y="526"/>
			<point x="313" y="476"/>
			<point x="295" y="487" type="curve" smooth="yes"/>
			<point x="277" y="498"/>
			<point x="274" y="329"/>
			<point x="265" y="353" type="curve" smooth="yes"/>
			<point x="241" y="420"/>
			<point x="282" y="487"/>
			<point x="289" y="509" type="curve"/>
			<point x="259" y="527"/>
			<point x="239" y="375"/>
			<point x="248" y="339" type="curve"/>
			<point x="248" y="337"/>
			<point x="249" y="319"/>
		</contour>
		<contour>
			<point x="461" y="421" type="curve"/>
			<point x="438" y="427"/>
			<point x="421" y="442"/>
			<point x="380" y="455" type="curve"/>
			<point x="484" y="487" type="line"/>
			<point x="489" y="482"/>
			<point x="538" y="462"/>
			<point x="534" y="458" type="curve" smooth="yes"/>
			<point x="529" y="452"/>
			<point x="484" y="441"/>
		</contour>
	</outline>
</glyph>
<glyph name="c_h" format="2">
	<advance width="685"/>
	<outline>
		<contour>
			<point x="474" y="-75" type="line"/>
			<point x="565" y="-50"/>
			<point x="665" y="83"/>
			<point x="665" y="202" type="curve" smooth="yes"/>
			<point x="665" y="317"/>
			<point x="575" y="390"/>
			<point x="484" y="410" type="curve"/>
			<point x="374" y="308" type="line"/>
			<point x="374" y="738" type="line"/>
			<point x="365" y="740" type="line"/>
			<point x="325" y="708"/>
			<point x="277" y="700"/>
			<point x="176" y="700" type="curve"/>
			<point x="101" y="624" type="line"/>
			<point x="110" y="615" type="line"/>
			<point x="155" y="629"/>
			<point x="213" y="629"/>
			<point x="293" y="630" type="curve"/>
			<point x="293" y="342" type="line"/>
			<point x="250" y="361"/>
			<point x="216" y="379"/>
			<point x="183" y="410" type="curve"/>
			<point x="179" y="410" type="line"/>
			<point x="29" y="293" type="line"/>
			<point x="26" y="255"/>
			<point x="31" y="160"/>
			<point x="31" y="114" type="curve" smooth="yes"/>
			<point x="31" y="50"/>
			<point x="86" y="10"/>
			<point x="137" y="-10" type="curve"/>
			<point x="293" y="84" type="line"/>
			<point x="293" y="63"/>
			<point x="287" y="38"/>
			<point x="277" y="10" type="curve"/>
			<point x="277" y="0" type="line"/>
			<point x="390" y="0" type="line"/>
			<point x="390" y="10" type="line"/>
			<point x="379" y="41"/>
			<point x="374" y="63"/>
			<point x="374" y="103" type="curve" smooth="yes"/>
			<point x="374" y="273" type="line"/>
			<point x="394" y="296"/>
			<point x="424" y="307"/>
			<point x="462" y="307" type="curve" smooth="yes"/>
			<point x="542" y="307"/>
			<point x="600" y="232"/>
			<point x="600" y="152" type="curve" smooth="yes"/>
			<point x="600" y="89"/>
			<point x="574" y="24"/>
			<point x="559" y="13" type="curve"/>
			<point x="544" y="8"/>
			<point x="518" y="5"/>
			<point x="497" y="5" type="curve"/>
			<point x="470" y="-70" type="line"/>
		</contour>
		<contour>
			<point x="189" y="75" type="curve" smooth="yes"/>
			<point x="119" y="75"/>
			<point x="101" y="141"/>
			<point x="101" y="202" type="curve" smooth="yes"/>
			<point x="101" y="245"/>
			<point x="104" y="312"/>
			<point x="117" y="325" type="curve"/>
			<point x="142" y="309"/>
			<point x="192" y="274"/>
			<point x="214" y="276" type="curve"/>
			<point x="293" y="327" type="line"/>
			<point x="293" y="117" type="line"/>
			<point x="259" y="98"/>
			<point x="236" y="75"/>
		</contour>
	</outline>
</glyph>
<glyph name="c_k" format="2">
	<advance width="610"/>
	<outline>
		<contour>
			<point x="126" y="-10" type="curve"/>
			<point x="171" y="15"/>
			<point x="237" y="63"/>
			<point x="273" y="82" type="curve"/>
			<point x="273" y="60" type="line" smooth="yes"/>
			<point x="273" y="50"/>
			<point x="263" y="30"/>
			<point x="243" y="15" type="curve"/>
			<point x="243" y="0" type="line"/>
			<point x="389" y="0" type="line"/>
			<point x="389" y="15" type="line"/>
			<point x="369" y="27"/>
			<point x="354" y="50"/>
			<point x="354" y="60" type="curve" smooth="yes"/>
			<point x="354" y="184" type="line"/>
			<point x="404" y="203"/>
			<point x="469" y="-10"/>
			<point x="528" y="-10" type="curve"/>
			<point x="552" y="20"/>
			<point x="580" y="50"/>
			<point x="610" y="80" type="curve"/>
			<point x="602" y="95" type="line"/>
			<point x="543" y="52"/>
			<point x="470" y="212"/>
			<point x="443" y="227" type="curve"/>
			<point x="482" y="263"/>
			<point x="536" y="296"/>
			<point x="536" y="330" type="curve" smooth="yes"/>
			<point x="536" y="366"/>
			<point x="488" y="410"/>
			<point x="446" y="410" type="curve"/>
			<point x="418" y="388"/>
			<point x="388" y="365"/>
			<point x="354" y="343" type="curve"/>
			<point x="354" y="743" type="line"/>
			<point x="347" y="747" type="line"/>
			<point x="289" y="699"/>
			<point x="278" y="701"/>
			<point x="156" y="691" type="curve"/>
			<point x="81" y="618" type="line"/>
			<point x="90" y="609" type="line"/>
			<point x="135" y="623"/>
			<point x="193" y="629"/>
			<point x="273" y="630" type="curve"/>
			<point x="273" y="359" type="line"/>
			<point x="245" y="369"/>
			<point x="217" y="385"/>
			<point x="189" y="410" type="curve"/>
			<point x="155" y="394"/>
			<point x="79" y="347"/>
			<point x="49" y="325" type="curve"/>
			<point x="37" y="286"/>
			<point x="30" y="240"/>
			<point x="30" y="194" type="curve" smooth="yes"/>
			<point x="30" y="70"/>
			<point x="75" y="10"/>
		</contour>
		<contour>
			<point x="188" y="85" type="curve" smooth="yes"/>
			<point x="120" y="85"/>
			<point x="110" y="159"/>
			<point x="110" y="220" type="curve" smooth="yes"/>
			<point x="110" y="274"/>
			<point x="117" y="311"/>
			<point x="126" y="340" type="curve"/>
			<point x="144" y="339"/>
			<point x="171" y="327"/>
			<point x="202" y="295" type="curve"/>
			<point x="273" y="333" type="line"/>
			<point x="273" y="108" type="line"/>
			<point x="249" y="93"/>
			<point x="225" y="85"/>
		</contour>
		<contour>
			<point x="354" y="201" type="curve"/>
			<point x="354" y="320" type="line"/>
			<point x="403" y="358"/>
			<point x="460" y="343"/>
			<point x="460" y="305" type="curve" smooth="yes"/>
			<point x="460" y="286"/>
			<point x="445" y="241"/>
		</contour>
	</outline>
</glyph>
<glyph name="f_f" format="2">
	<advance width="483"/>
	<outline>
		<contour>
			<point x="47" y="10" type="curve"/>
			<point x="47" y="0" type="line"/>
			<point x="169" y="0" type="line"/>
			<point x="169" y="10" type="line"/>
			<point x="149" y="32"/>
			<point x="144" y="44"/>
			<point x="144" y="84" type="curve"/>
			<point x="144" y="301" type="line"/>
			<point x="282" y="301" type="line"/>
			<point x="282" y="84" type="line" smooth="yes"/>
			<point x="282" y="44"/>
			<point x="272" y="35"/>
			<point x="262" y="10" type="curve"/>
			<point x="262" y="0" type="line"/>
			<point x="386" y="0" type="line"/>
			<point x="386" y="10" type="line"/>
			<point x="376" y="32"/>
			<point x="362" y="44"/>
			<point x="362" y="84" type="curve"/>
			<point x="362" y="301" type="line"/>
			<point x="490" y="301" type="line"/>
			<point x="490" y="366" type="line"/>
			<point x="360" y="366" type="line"/>
			<point x="360" y="650" type="line"/>
			<point x="413" y="660"/>
			<point x="454" y="623"/>
			<point x="472" y="596" type="curve"/>
			<point x="553" y="653" type="line"/>
			<point x="553" y="656" type="line"/>
			<point x="523" y="696"/>
			<point x="461" y="710"/>
			<point x="424" y="710" type="curve"/>
			<point x="418" y="710"/>
			<point x="385" y="690"/>
			<point x="353" y="669" type="curve"/>
			<point x="312" y="700"/>
			<point x="245" y="717"/>
			<point x="212" y="710" type="curve"/>
			<point x="199" y="710"/>
			<point x="65" y="654"/>
			<point x="65" y="644" type="curve"/>
			<point x="65" y="359" type="line"/>
			<point x="30" y="306" type="line"/>
			<point x="32" y="301" type="line"/>
			<point x="64" y="301" type="line"/>
			<point x="64" y="84" type="line" smooth="yes"/>
			<point x="64" y="44"/>
			<point x="57" y="35"/>
		</contour>
		<contour>
			<point x="283" y="366" type="line"/>
			<point x="142" y="366" type="line"/>
			<point x="142" y="661" type="line"/>
			<point x="172" y="675"/>
			<point x="247" y="653"/>
			<point x="283" y="614" type="curve"/>
		</contour>
	</outline>
</glyph>
<glyph name="f_f_l" format="2">
	<advance width="652"/>
	<outline>
		<contour>
			<point x="567" y="-10" type="curve"/>
			<point x="657" y="60" type="line"/>
			<point x="657" y="70" type="line"/>
			<point x="627" y="70"/>
			<point x="572" y="80"/>
			<point x="570" y="130" type="curve" smooth="yes"/>
			<point x="564" y="321"/>
			<point x="559" y="660"/>
			<point x="579" y="704" type="curve"/>
			<point x="572" y="710" type="line"/>
			<point x="523" y="680" type="line"/>
			<point x="492" y="698"/>
			<point x="437" y="710"/>
			<point x="411" y="710" type="curve" smooth="yes"/>
			<point x="403" y="710"/>
			<point x="370" y="677"/>
			<point x="332" y="649" type="curve"/>
			<point x="307" y="686"/>
			<point x="262" y="710"/>
			<point x="196" y="710" type="curve" smooth="yes"/>
			<point x="183" y="710"/>
			<point x="75" y="624"/>
			<point x="75" y="614" type="curve" smooth="yes"/>
			<point x="75" y="359" type="line"/>
			<point x="30" y="306" type="line"/>
			<point x="32" y="301" type="line"/>
			<point x="74" y="301" type="line"/>
			<point x="74" y="60" type="line" smooth="yes"/>
			<point x="74" y="40"/>
			<point x="64" y="25"/>
			<point x="54" y="10" type="curve"/>
			<point x="54" y="0" type="line"/>
			<point x="189" y="0" type="line"/>
			<point x="189" y="10" type="line"/>
			<point x="159" y="32"/>
			<point x="154" y="40"/>
			<point x="154" y="60" type="curve" smooth="yes"/>
			<point x="154" y="301" type="line"/>
			<point x="289" y="300" type="line"/>
			<point x="289" y="60" type="line" smooth="yes"/>
			<point x="289" y="30"/>
			<point x="279" y="25"/>
			<point x="269" y="10" type="curve"/>
			<point x="269" y="0" type="line"/>
			<point x="424" y="0" type="line"/>
			<point x="424" y="10" type="line"/>
			<point x="375" y="36"/>
			<point x="369" y="34"/>
			<point x="369" y="60" type="curve" smooth="yes"/>
			<point x="369" y="301" type="line"/>
			<point x="457" y="298" type="line"/>
			<point x="457" y="366" type="line"/>
			<point x="367" y="366" type="line"/>
			<point x="367" y="650" type="line"/>
			<point x="399" y="650"/>
			<point x="458" y="623"/>
			<point x="487" y="597" type="curve"/>
			<point x="487" y="94" type="line" smooth="yes"/>
			<point x="487" y="44"/>
			<point x="512" y="23"/>
		</contour>
		<contour>
			<point x="152" y="366" type="line"/>
			<point x="152" y="650" type="line"/>
			<point x="215" y="650"/>
			<point x="271" y="624"/>
			<point x="290" y="571" type="curve"/>
			<point x="290" y="366" type="line"/>
		</contour>
	</outline>
</glyph>
<glyph name="f_i" format="2">
	<advance width="433"/>
	<outline>
		<contour>
			<point x="368" y="-10" type="curve"/>
			<point x="428" y="60" type="line"/>
			<point x="428" y="75" type="line"/>
			<point x="412" y="75"/>
			<point x="365" y="97"/>
			<point x="365" y="154" type="curve" smooth="yes"/>
			<point x="365" y="410" type="line"/>
			<point x="357" y="414" type="line"/>
			<point x="333" y="394"/>
			<point x="309" y="378"/>
			<point x="287" y="366" type="curve"/>
			<point x="152" y="366" type="line"/>
			<point x="152" y="650" type="line"/>
			<point x="185" y="650"/>
			<point x="256" y="615"/>
			<point x="284" y="586" type="curve"/>
			<point x="365" y="643" type="line"/>
			<point x="365" y="646" type="line"/>
			<point x="327" y="676"/>
			<point x="253" y="710"/>
			<point x="216" y="710" type="curve" smooth="yes"/>
			<point x="203" y="710"/>
			<point x="123" y="662"/>
			<point x="75" y="633" type="curve"/>
			<point x="75" y="359" type="line"/>
			<point x="30" y="306" type="line"/>
			<point x="32" y="301" type="line"/>
			<point x="74" y="301" type="line"/>
			<point x="74" y="75" type="line" smooth="yes"/>
			<point x="74" y="45"/>
			<point x="64" y="27"/>
			<point x="44" y="10" type="curve"/>
			<point x="44" y="0" type="line"/>
			<point x="189" y="0" type="line"/>
			<point x="189" y="10" type="line"/>
			<point x="161" y="32"/>
			<point x="154" y="45"/>
			<point x="154" y="75" type="curve" smooth="yes"/>
			<point x="154" y="301" type="line"/>
			<point x="285" y="301" type="line"/>
			<point x="291" y="278"/>
			<point x="285" y="150"/>
			<point x="285" y="74" type="curve" smooth="yes"/>
			<point x="285" y="46"/>
			<point x="337" y="-10"/>
		</contour>
	</outline>
</glyph>
<glyph name="f_l" format="2">
	<advance width="436"/>
	<outline>
		<contour>
			<point x="366" y="-8" type="curve"/>
			<point x="397" y="9"/>
			<point x="414" y="28"/>
			<point x="441" y="46" type="curve"/>
			<point x="441" y="56" type="line"/>
			<point x="384" y="59"/>
			<point x="366" y="115"/>
			<point x="364" y="182" type="curve" smooth="yes"/>
			<point x="362" y="260"/>
			<point x="368" y="633"/>
			<point x="375" y="700" type="curve"/>
			<point x="365" y="704" type="line"/>
			<point x="349" y="692"/>
			<point x="326" y="682"/>
			<point x="304" y="672" type="curve"/>
			<point x="272" y="690"/>
			<point x="234" y="705"/>
			<point x="188" y="705" type="curve"/>
			<point x="72" y="646" type="line"/>
			<point x="72" y="359" type="line"/>
			<point x="30" y="308" type="line"/>
			<point x="30" y="301" type="line"/>
			<point x="71" y="301" type="line"/>
			<point x="71" y="83" type="line" smooth="yes"/>
			<point x="71" y="39"/>
			<point x="64" y="29"/>
			<point x="48" y="10" type="curve"/>
			<point x="48" y="0" type="line"/>
			<point x="178" y="0" type="line"/>
			<point x="178" y="10" type="line"/>
			<point x="157" y="30"/>
			<point x="151" y="40"/>
			<point x="151" y="83" type="curve" smooth="yes"/>
			<point x="151" y="301" type="line"/>
			<point x="246" y="301" type="line"/>
			<point x="249" y="365" type="line"/>
			<point x="149" y="365" type="line"/>
			<point x="149" y="644" type="line"/>
			<point x="224" y="649"/>
			<point x="264" y="596"/>
			<point x="284" y="575" type="curve"/>
			<point x="284" y="402"/>
			<point x="285" y="112"/>
			<point x="284" y="85" type="curve" smooth="yes"/>
			<point x="283" y="45"/>
			<point x="317" y="6"/>
		</contour>
	</outline>
</glyph>
<glyph name="germandbls.ss01" format="2">
	<advance width="388"/>
	<outline>
		<contour>
			<point x="163" y="-212" type="curve" smooth="yes"/>
			<point x="238" y="-212"/>
			<point x="361" y="-122"/>
			<point x="361" y="30" type="curve" smooth="yes"/>
			<point x="361" y="117"/>
			<point x="306" y="200"/>
			<point x="218" y="216" type="curve"/>
			<point x="377" y="370" type="line"/>
			<point x="378" y="380" type="line"/>
			<point x="130" y="380" type="line"/>
			<point x="130" y="650" type="line"/>
			<point x="193" y="650"/>
			<point x="242" y="613"/>
			<point x="270" y="586" type="curve"/>
			<point x="351" y="643" type="line"/>
			<point x="351" y="646" type="line"/>
			<point x="313" y="666"/>
			<point x="259" y="710"/>
			<point x="192" y="710" type="curve" smooth="yes"/>
			<point x="179" y="710"/>
			<point x="77" y="648"/>
			<point x="50" y="634" type="curve"/>
			<point x="50" y="75" type="line" smooth="yes"/>
			<point x="50" y="45"/>
			<point x="40" y="25"/>
			<point x="20" y="10" type="curve"/>
			<point x="20" y="0" type="line"/>
			<point x="174" y="0" type="line"/>
			<point x="174" y="10" type="line"/>
			<point x="145" y="22"/>
			<point x="130" y="45"/>
			<point x="130" y="75" type="curve" smooth="yes"/>
			<point x="130" y="159" type="line"/>
			<point x="239" y="164"/>
			<point x="277" y="67"/>
			<point x="277" y="-17" type="curve" smooth="yes"/>
			<point x="277" y="-70"/>
			<point x="258" y="-147"/>
			<point x="219" y="-172" type="curve"/>
			<point x="185" y="-172"/>
			<point x="150" y="-162"/>
			<point x="122" y="-136" type="curve"/>
			<point x="50" y="-188" type="line"/>
			<point x="84" y="-203"/>
			<point x="126" y="-212"/>
		</contour>
		<contour>
			<point x="130" y="174" type="line"/>
			<point x="130" y="301" type="line"/>
			<point x="155" y="307"/>
			<point x="214" y="307"/>
			<point x="268" y="305" type="curve"/>
		</contour>
	</outline>
</glyph>
